<?xml version="1.0" encoding="UTF-8" standalone="no"?>
<!DOCTYPE svg PUBLIC "-//W3C//DTD SVG 1.1//EN"
 "http://www.w3.org/Graphics/SVG/1.1/DTD/svg11.dtd">
<!-- Generated by graphviz version 2.42.4 (0)
 -->
<!-- Title: G Pages: 1 -->
<svg width="1745pt" height="833pt"
 viewBox="0.00 0.00 1745.40 833.14" xmlns="http://www.w3.org/2000/svg" xmlns:xlink="http://www.w3.org/1999/xlink">
<g id="graph0" class="graph" transform="scale(1 1) rotate(0) translate(25.2 807.94)">
<title>G</title>
<polygon fill="white" stroke="transparent" points="-25.2,25.2 -25.2,-807.94 1720.2,-807.94 1720.2,25.2 -25.2,25.2"/>
<text text-anchor="middle" x="305.5" y="-764.34" font-family="DejaVu Sans" font-size="18.00">AI Resume Coach — Certified Multi&#45;Site Active&#45;Active Architecture</text>
<g id="clust1" class="cluster">
<title>cluster_users</title>
<path fill="white" stroke="#cbd5e1" stroke-dasharray="5,2" d="M185,-638.74C185,-638.74 283,-638.74 283,-638.74 289,-638.74 295,-644.74 295,-650.74 295,-650.74 295,-734.74 295,-734.74 295,-740.74 289,-746.74 283,-746.74 283,-746.74 185,-746.74 185,-746.74 179,-746.74 173,-740.74 173,-734.74 173,-734.74 173,-650.74 173,-650.74 173,-644.74 179,-638.74 185,-638.74"/>
<text text-anchor="middle" x="231.5" y="-728.34" font-family="DejaVu Sans" font-size="18.00">Experience</text>
</g>
<g id="clust2" class="cluster">
<title>cluster_global</title>
<path fill="white" stroke="#94a3b8" d="M20,-351.74C20,-351.74 474,-351.74 474,-351.74 480,-351.74 486,-357.74 486,-363.74 486,-363.74 486,-592.74 486,-592.74 486,-598.74 480,-604.74 474,-604.74 474,-604.74 20,-604.74 20,-604.74 14,-604.74 8,-598.74 8,-592.74 8,-592.74 8,-363.74 8,-363.74 8,-357.74 14,-351.74 20,-351.74"/>
<text text-anchor="middle" x="157" y="-586.34" font-family="DejaVu Sans" font-size="18.00">Global Edge &amp; Shared Services</text>
</g>
<g id="clust3" class="cluster">
<title>cluster_east</title>
<path fill="white" stroke="#2563eb" stroke-width="2" d="M506,-104C506,-104 766,-104 766,-104 772,-104 778,-110 778,-116 778,-116 778,-448.74 778,-448.74 778,-454.74 772,-460.74 766,-460.74 766,-460.74 506,-460.74 506,-460.74 500,-460.74 494,-454.74 494,-448.74 494,-448.74 494,-116 494,-116 494,-110 500,-104 506,-104"/>
<text text-anchor="middle" x="607.5" y="-442.34" font-family="DejaVu Sans" font-size="18.00">Active Site — us&#45;east&#45;1</text>
</g>
<g id="clust4" class="cluster">
<title>cluster_west</title>
<path fill="white" stroke="#0f766e" stroke-width="2" d="M1311,-104C1311,-104 1572,-104 1572,-104 1578,-104 1584,-110 1584,-116 1584,-116 1584,-448.74 1584,-448.74 1584,-454.74 1578,-460.74 1572,-460.74 1572,-460.74 1311,-460.74 1311,-460.74 1305,-460.74 1299,-454.74 1299,-448.74 1299,-448.74 1299,-116 1299,-116 1299,-110 1305,-104 1311,-104"/>
<text text-anchor="middle" x="1414.5" y="-442.34" font-family="DejaVu Sans" font-size="18.00">Active Site — us&#45;west&#45;2</text>
</g>
<g id="clust5" class="cluster">
<title>cluster_data</title>
<path fill="white" stroke="#7c3aed" stroke-width="2" d="M874,-8C874,-8 1207,-8 1207,-8 1213,-8 1219,-14 1219,-20 1219,-20 1219,-313.74 1219,-313.74 1219,-319.74 1213,-325.74 1207,-325.74 1207,-325.74 874,-325.74 874,-325.74 868,-325.74 862,-319.74 862,-313.74 862,-313.74 862,-20 862,-20 862,-14 868,-8 874,-8"/>
<text text-anchor="middle" x="1040.5" y="-307.34" font-family="DejaVu Sans" font-size="18.00">Strongly Consistent System of Record</text>
</g>
<!-- user -->
<g id="node1" class="node">
<title>user</title>
<path fill="#e0f2fe" stroke="#334155" stroke-width="1.3" d="M275,-682.74C275,-682.74 193,-682.74 193,-682.74 187,-682.74 181,-676.74 181,-670.74 181,-670.74 181,-658.74 181,-658.74 181,-652.74 187,-646.74 193,-646.74 193,-646.74 275,-646.74 275,-646.74 281,-646.74 287,-652.74 287,-658.74 287,-658.74 287,-670.74 287,-670.74 287,-676.74 281,-682.74 275,-682.74"/>
<text text-anchor="middle" x="234" y="-661.94" font-family="DejaVu Sans" font-size="11.00" fill="#0f172a">User / Browser</text>
</g>
<!-- r53 -->
<g id="node2" class="node">
<title>r53</title>
<path fill="#fef3c7" stroke="#334155" stroke-width="1.3" d="M326.5,-540.74C326.5,-540.74 141.5,-540.74 141.5,-540.74 135.5,-540.74 129.5,-534.74 129.5,-528.74 129.5,-528.74 129.5,-514.74 129.5,-514.74 129.5,-508.74 135.5,-502.74 141.5,-502.74 141.5,-502.74 326.5,-502.74 326.5,-502.74 332.5,-502.74 338.5,-508.74 338.5,-514.74 338.5,-514.74 338.5,-528.74 338.5,-528.74 338.5,-534.74 332.5,-540.74 326.5,-540.74"/>
<text text-anchor="middle" x="234" y="-524.94" font-family="DejaVu Sans" font-size="11.00" fill="#0f172a">Route 53</text>
<text text-anchor="middle" x="234" y="-512.94" font-family="DejaVu Sans" font-size="11.00" fill="#0f172a">Latency Routing + Health Checks</text>
</g>
<!-- user&#45;&gt;r53 -->
<g id="edge3" class="edge">
<title>user&#45;&gt;r53</title>
<path fill="none" stroke="#64748b" stroke-width="1.3" d="M234,-646.63C234,-646.63 234,-548.57 234,-548.57"/>
<polygon fill="#64748b" stroke="#64748b" stroke-width="1.3" points="236.63,-548.57 234,-541.07 231.38,-548.57 236.63,-548.57"/>
<text text-anchor="middle" x="257" y="-615.54" font-family="DejaVu Sans" font-size="9.00" fill="#334155">Global API</text>
</g>
<!-- cf -->
<g id="node3" class="node">
<title>cf</title>
<path fill="#fef3c7" stroke="#334155" stroke-width="1.3" d="M87.5,-539.74C87.5,-539.74 28.5,-539.74 28.5,-539.74 22.5,-539.74 16.5,-533.74 16.5,-527.74 16.5,-527.74 16.5,-515.74 16.5,-515.74 16.5,-509.74 22.5,-503.74 28.5,-503.74 28.5,-503.74 87.5,-503.74 87.5,-503.74 93.5,-503.74 99.5,-509.74 99.5,-515.74 99.5,-515.74 99.5,-527.74 99.5,-527.74 99.5,-533.74 93.5,-539.74 87.5,-539.74"/>
<text text-anchor="middle" x="58" y="-518.94" font-family="DejaVu Sans" font-size="11.00" fill="#0f172a">CloudFront</text>
</g>
<!-- user&#45;&gt;cf -->
<g id="edge1" class="edge">
<title>user&#45;&gt;cf</title>
<path fill="none" stroke="#64748b" stroke-width="1.3" d="M180.72,-664C128.92,-664 58,-664 58,-664 58,-664 58,-547.26 58,-547.26"/>
<polygon fill="#64748b" stroke="#64748b" stroke-width="1.3" points="60.63,-547.26 58,-539.76 55.38,-547.26 60.63,-547.26"/>
<text text-anchor="middle" x="128.5" y="-615.54" font-family="DejaVu Sans" font-size="9.00" fill="#334155">HTTPS frontend</text>
</g>
<!-- cog -->
<g id="node5" class="node">
<title>cog</title>
<path fill="#f3e8ff" stroke="#334155" stroke-width="1.3" d="M465.5,-540.74C465.5,-540.74 380.5,-540.74 380.5,-540.74 374.5,-540.74 368.5,-534.74 368.5,-528.74 368.5,-528.74 368.5,-514.74 368.5,-514.74 368.5,-508.74 374.5,-502.74 380.5,-502.74 380.5,-502.74 465.5,-502.74 465.5,-502.74 471.5,-502.74 477.5,-508.74 477.5,-514.74 477.5,-514.74 477.5,-528.74 477.5,-528.74 477.5,-534.74 471.5,-540.74 465.5,-540.74"/>
<text text-anchor="middle" x="423" y="-524.94" font-family="DejaVu Sans" font-size="11.00" fill="#0f172a">Cognito</text>
<text text-anchor="middle" x="423" y="-512.94" font-family="DejaVu Sans" font-size="11.00" fill="#0f172a">Shared Identity</text>
</g>
<!-- user&#45;&gt;cog -->
<g id="edge6" class="edge">
<title>user&#45;&gt;cog</title>
<path fill="none" stroke="#64748b" stroke-width="1.3" d="M287.15,-664C343.05,-664 423,-664 423,-664 423,-664 423,-548.43 423,-548.43"/>
<polygon fill="#64748b" stroke="#64748b" stroke-width="1.3" points="425.63,-548.43 423,-540.93 420.38,-548.43 425.63,-548.43"/>
<text text-anchor="middle" x="398" y="-615.54" font-family="DejaVu Sans" font-size="9.00" fill="#334155">authenticate</text>
</g>
<!-- eapi -->
<g id="node6" class="node">
<title>eapi</title>
<path fill="#f8fafc" stroke="#334155" stroke-width="1.3" d="M752,-395.74C752,-395.74 682,-395.74 682,-395.74 676,-395.74 670,-389.74 670,-383.74 670,-383.74 670,-371.74 670,-371.74 670,-365.74 676,-359.74 682,-359.74 682,-359.74 752,-359.74 752,-359.74 758,-359.74 764,-365.74 764,-371.74 764,-371.74 764,-383.74 764,-383.74 764,-389.74 758,-395.74 752,-395.74"/>
<text text-anchor="middle" x="717" y="-374.94" font-family="DejaVu Sans" font-size="11.00" fill="#0f172a">API Gateway</text>
</g>
<!-- r53&#45;&gt;eapi -->
<g id="edge4" class="edge">
<title>r53&#45;&gt;eapi</title>
<path fill="none" stroke="#64748b" stroke-width="1.3" d="M199.17,-502.71C199.17,-476.37 199.17,-432 199.17,-432 199.17,-432 701.33,-432 701.33,-432 701.33,-432 701.33,-403.31 701.33,-403.31"/>
<polygon fill="#64748b" stroke="#64748b" stroke-width="1.3" points="703.96,-403.31 701.33,-395.81 698.71,-403.31 703.96,-403.31"/>
<text text-anchor="middle" x="411.5" y="-471.54" font-family="DejaVu Sans" font-size="9.00" fill="#334155">healthy site</text>
</g>
<!-- wapi -->
<g id="node12" class="node">
<title>wapi</title>
<path fill="#f8fafc" stroke="#334155" stroke-width="1.3" d="M1389,-395.74C1389,-395.74 1319,-395.74 1319,-395.74 1313,-395.74 1307,-389.74 1307,-383.74 1307,-383.74 1307,-371.74 1307,-371.74 1307,-365.74 1313,-359.74 1319,-359.74 1319,-359.74 1389,-359.74 1389,-359.74 1395,-359.74 1401,-365.74 1401,-371.74 1401,-371.74 1401,-383.74 1401,-383.74 1401,-389.74 1395,-395.74 1389,-395.74"/>
<text text-anchor="middle" x="1354" y="-374.94" font-family="DejaVu Sans" font-size="11.00" fill="#0f172a">API Gateway</text>
</g>
<!-- r53&#45;&gt;wapi -->
<g id="edge5" class="edge">
<title>r53&#45;&gt;wapi</title>
<path fill="none" stroke="#64748b" stroke-width="1.3" d="M268.83,-502.59C268.83,-486.81 268.83,-467 268.83,-467 268.83,-467 1338.33,-467 1338.33,-467 1338.33,-467 1338.33,-403.3 1338.33,-403.3"/>
<polygon fill="#64748b" stroke="#64748b" stroke-width="1.3" points="1340.96,-403.3 1338.33,-395.8 1335.71,-403.3 1340.96,-403.3"/>
<text text-anchor="middle" x="505.5" y="-471.54" font-family="DejaVu Sans" font-size="9.00" fill="#334155">healthy site</text>
</g>
<!-- fe -->
<g id="node4" class="node">
<title>fe</title>
<path fill="#fef3c7" stroke="#334155" stroke-width="1.3" d="M94,-395.74C94,-395.74 28,-395.74 28,-395.74 22,-395.74 16,-389.74 16,-383.74 16,-383.74 16,-371.74 16,-371.74 16,-365.74 22,-359.74 28,-359.74 28,-359.74 94,-359.74 94,-359.74 100,-359.74 106,-365.74 106,-371.74 106,-371.74 106,-383.74 106,-383.74 106,-389.74 100,-395.74 94,-395.74"/>
<text text-anchor="middle" x="61" y="-374.94" font-family="DejaVu Sans" font-size="11.00" fill="#0f172a">S3 Frontend</text>
</g>
<!-- cf&#45;&gt;fe -->
<g id="edge2" class="edge">
<title>cf&#45;&gt;fe</title>
<path fill="none" stroke="#64748b" stroke-width="1.3" d="M58,-503.5C58,-503.5 58,-403.33 58,-403.33"/>
<polygon fill="#64748b" stroke="#64748b" stroke-width="1.3" points="60.63,-403.33 58,-395.83 55.38,-403.33 60.63,-403.33"/>
</g>
<!-- cog&#45;&gt;eapi -->
<g id="edge7" class="edge">
<title>cog&#45;&gt;eapi</title>
<path fill="none" stroke="#64748b" stroke-width="1.3" stroke-dasharray="5,2" d="M477.65,-515C566.55,-515 732.67,-515 732.67,-515 732.67,-515 732.67,-403.47 732.67,-403.47"/>
<polygon fill="#64748b" stroke="#64748b" stroke-width="1.3" points="735.29,-403.47 732.67,-395.97 730.04,-403.47 735.29,-403.47"/>
<text text-anchor="middle" x="579" y="-471.54" font-family="DejaVu Sans" font-size="9.00" fill="#334155">JWT</text>
</g>
<!-- cog&#45;&gt;wapi -->
<g id="edge8" class="edge">
<title>cog&#45;&gt;wapi</title>
<path fill="none" stroke="#64748b" stroke-width="1.3" stroke-dasharray="5,2" d="M477.64,-528C679.24,-528 1369.67,-528 1369.67,-528 1369.67,-528 1369.67,-403.36 1369.67,-403.36"/>
<polygon fill="#64748b" stroke="#64748b" stroke-width="1.3" points="1372.29,-403.36 1369.67,-395.86 1367.04,-403.37 1372.29,-403.36"/>
<text text-anchor="middle" x="1071" y="-471.54" font-family="DejaVu Sans" font-size="9.00" fill="#334155">JWT</text>
</g>
<!-- elam -->
<g id="node7" class="node">
<title>elam</title>
<path fill="#f8fafc" stroke="#334155" stroke-width="1.3" d="M758.5,-252.87C758.5,-252.87 693.5,-252.87 693.5,-252.87 687.5,-252.87 681.5,-246.87 681.5,-240.87 681.5,-240.87 681.5,-228.87 681.5,-228.87 681.5,-222.87 687.5,-216.87 693.5,-216.87 693.5,-216.87 758.5,-216.87 758.5,-216.87 764.5,-216.87 770.5,-222.87 770.5,-228.87 770.5,-228.87 770.5,-240.87 770.5,-240.87 770.5,-246.87 764.5,-252.87 758.5,-252.87"/>
<text text-anchor="middle" x="726" y="-232.07" font-family="DejaVu Sans" font-size="11.00" fill="#0f172a">API Lambda</text>
</g>
<!-- eapi&#45;&gt;elam -->
<g id="edge9" class="edge">
<title>eapi&#45;&gt;elam</title>
<path fill="none" stroke="#64748b" stroke-width="1.3" d="M722.75,-359.65C722.75,-359.65 722.75,-260.77 722.75,-260.77"/>
<polygon fill="#64748b" stroke="#64748b" stroke-width="1.3" points="725.38,-260.77 722.75,-253.27 720.13,-260.77 725.38,-260.77"/>
</g>
<!-- es3 -->
<g id="node11" class="node">
<title>es3</title>
<path fill="#f8fafc" stroke="#334155" stroke-width="1.3" d="M738.5,-150C738.5,-150 673.5,-150 673.5,-150 667.5,-150 661.5,-144 661.5,-138 661.5,-138 661.5,-124 661.5,-124 661.5,-118 667.5,-112 673.5,-112 673.5,-112 738.5,-112 738.5,-112 744.5,-112 750.5,-118 750.5,-124 750.5,-124 750.5,-138 750.5,-138 750.5,-144 744.5,-150 738.5,-150"/>
<text text-anchor="middle" x="706" y="-134.2" font-family="DejaVu Sans" font-size="11.00" fill="#0f172a">Regional S3</text>
<text text-anchor="middle" x="706" y="-122.2" font-family="DejaVu Sans" font-size="11.00" fill="#0f172a">Documents</text>
</g>
<!-- elam&#45;&gt;es3 -->
<g id="edge13" class="edge">
<title>elam&#45;&gt;es3</title>
<path fill="none" stroke="#64748b" stroke-width="1.3" d="M716,-216.78C716,-216.78 716,-157.79 716,-157.79"/>
<polygon fill="#64748b" stroke="#64748b" stroke-width="1.3" points="718.63,-157.79 716,-150.29 713.38,-157.79 718.63,-157.79"/>
<text text-anchor="middle" x="611.5" y="-176.8" font-family="DejaVu Sans" font-size="9.00" fill="#334155">regional documents</text>
</g>
<!-- dbe -->
<g id="node18" class="node">
<title>dbe</title>
<path fill="#f3e8ff" stroke="#334155" stroke-width="1.3" d="M1081,-150C1081,-150 933,-150 933,-150 927,-150 921,-144 921,-138 921,-138 921,-124 921,-124 921,-118 927,-112 933,-112 933,-112 1081,-112 1081,-112 1087,-112 1093,-118 1093,-124 1093,-124 1093,-138 1093,-138 1093,-144 1087,-150 1081,-150"/>
<text text-anchor="middle" x="1007" y="-134.2" font-family="DejaVu Sans" font-size="11.00" fill="#0f172a">DynamoDB MRSC</text>
<text text-anchor="middle" x="1007" y="-122.2" font-family="DejaVu Sans" font-size="11.00" fill="#0f172a">Active Replica — us&#45;east&#45;1</text>
</g>
<!-- elam&#45;&gt;dbe -->
<g id="edge11" class="edge">
<title>elam&#45;&gt;dbe</title>
<path fill="none" stroke="#64748b" stroke-width="1.3" d="M760.5,-216.56C760.5,-185.07 760.5,-124 760.5,-124 760.5,-124 913.29,-124 913.29,-124"/>
<polygon fill="#64748b" stroke="#64748b" stroke-width="1.3" points="913.29,-126.63 920.79,-124 913.29,-121.38 913.29,-126.63"/>
<text text-anchor="middle" x="757" y="-176.8" font-family="DejaVu Sans" font-size="9.00" fill="#334155">transactional state + outbox</text>
</g>
<!-- epub -->
<g id="node8" class="node">
<title>epub</title>
<path fill="#f8fafc" stroke="#334155" stroke-width="1.3" d="M628,-396.74C628,-396.74 526,-396.74 526,-396.74 520,-396.74 514,-390.74 514,-384.74 514,-384.74 514,-370.74 514,-370.74 514,-364.74 520,-358.74 526,-358.74 526,-358.74 628,-358.74 628,-358.74 634,-358.74 640,-364.74 640,-370.74 640,-370.74 640,-384.74 640,-384.74 640,-390.74 634,-396.74 628,-396.74"/>
<text text-anchor="middle" x="577" y="-380.94" font-family="DejaVu Sans" font-size="11.00" fill="#0f172a">Outbox Publisher</text>
<text text-anchor="middle" x="577" y="-368.94" font-family="DejaVu Sans" font-size="11.00" fill="#0f172a">1&#45;minute schedule</text>
</g>
<!-- eq -->
<g id="node9" class="node">
<title>eq</title>
<path fill="#f8fafc" stroke="#334155" stroke-width="1.3" d="M640,-252.87C640,-252.87 514,-252.87 514,-252.87 508,-252.87 502,-246.87 502,-240.87 502,-240.87 502,-228.87 502,-228.87 502,-222.87 508,-216.87 514,-216.87 514,-216.87 640,-216.87 640,-216.87 646,-216.87 652,-222.87 652,-228.87 652,-228.87 652,-240.87 652,-240.87 652,-246.87 646,-252.87 640,-252.87"/>
<text text-anchor="middle" x="577" y="-232.07" font-family="DejaVu Sans" font-size="11.00" fill="#0f172a">SQS Processing Queue</text>
</g>
<!-- epub&#45;&gt;eq -->
<g id="edge17" class="edge">
<title>epub&#45;&gt;eq</title>
<path fill="none" stroke="#64748b" stroke-width="1.3" d="M598,-358.47C598,-358.47 598,-260.43 598,-260.43"/>
<polygon fill="#64748b" stroke="#64748b" stroke-width="1.3" points="600.63,-260.43 598,-252.93 595.38,-260.43 600.63,-260.43"/>
</g>
<!-- ew -->
<g id="node10" class="node">
<title>ew</title>
<path fill="#f8fafc" stroke="#334155" stroke-width="1.3" d="M619.5,-149C619.5,-149 532.5,-149 532.5,-149 526.5,-149 520.5,-143 520.5,-137 520.5,-137 520.5,-125 520.5,-125 520.5,-119 526.5,-113 532.5,-113 532.5,-113 619.5,-113 619.5,-113 625.5,-113 631.5,-119 631.5,-125 631.5,-125 631.5,-137 631.5,-137 631.5,-143 625.5,-149 619.5,-149"/>
<text text-anchor="middle" x="576" y="-128.2" font-family="DejaVu Sans" font-size="11.00" fill="#0f172a">Worker Lambda</text>
</g>
<!-- eq&#45;&gt;ew -->
<g id="edge19" class="edge">
<title>eq&#45;&gt;ew</title>
<path fill="none" stroke="#64748b" stroke-width="1.3" d="M576,-216.78C576,-216.78 576,-156.73 576,-156.73"/>
<polygon fill="#64748b" stroke="#64748b" stroke-width="1.3" points="578.63,-156.73 576,-149.23 573.38,-156.73 578.63,-156.73"/>
</g>
<!-- ew&#45;&gt;dbe -->
<g id="edge21" class="edge">
<title>ew&#45;&gt;dbe</title>
<path fill="none" stroke="#64748b" stroke-width="1.3" d="M576,-112.85C576,-99.26 576,-83 576,-83 576,-83 978.25,-83 978.25,-83 978.25,-83 978.25,-104.25 978.25,-104.25"/>
<polygon fill="#64748b" stroke="#64748b" stroke-width="1.3" points="975.63,-104.25 978.25,-111.75 980.88,-104.25 975.63,-104.25"/>
<text text-anchor="middle" x="859" y="-176.8" font-family="DejaVu Sans" font-size="9.00" fill="#334155">claim + result</text>
</g>
<!-- wlam -->
<g id="node13" class="node">
<title>wlam</title>
<path fill="#f8fafc" stroke="#334155" stroke-width="1.3" d="M1383.5,-252.87C1383.5,-252.87 1318.5,-252.87 1318.5,-252.87 1312.5,-252.87 1306.5,-246.87 1306.5,-240.87 1306.5,-240.87 1306.5,-228.87 1306.5,-228.87 1306.5,-222.87 1312.5,-216.87 1318.5,-216.87 1318.5,-216.87 1383.5,-216.87 1383.5,-216.87 1389.5,-216.87 1395.5,-222.87 1395.5,-228.87 1395.5,-228.87 1395.5,-240.87 1395.5,-240.87 1395.5,-246.87 1389.5,-252.87 1383.5,-252.87"/>
<text text-anchor="middle" x="1351" y="-232.07" font-family="DejaVu Sans" font-size="11.00" fill="#0f172a">API Lambda</text>
</g>
<!-- wapi&#45;&gt;wlam -->
<g id="edge10" class="edge">
<title>wapi&#45;&gt;wlam</title>
<path fill="none" stroke="#64748b" stroke-width="1.3" d="M1351.25,-359.65C1351.25,-359.65 1351.25,-260.77 1351.25,-260.77"/>
<polygon fill="#64748b" stroke="#64748b" stroke-width="1.3" points="1353.88,-260.77 1351.25,-253.27 1348.63,-260.77 1353.88,-260.77"/>
</g>
<!-- ws3 -->
<g id="node17" class="node">
<title>ws3</title>
<path fill="#f8fafc" stroke="#334155" stroke-width="1.3" d="M1422.5,-150C1422.5,-150 1357.5,-150 1357.5,-150 1351.5,-150 1345.5,-144 1345.5,-138 1345.5,-138 1345.5,-124 1345.5,-124 1345.5,-118 1351.5,-112 1357.5,-112 1357.5,-112 1422.5,-112 1422.5,-112 1428.5,-112 1434.5,-118 1434.5,-124 1434.5,-124 1434.5,-138 1434.5,-138 1434.5,-144 1428.5,-150 1422.5,-150"/>
<text text-anchor="middle" x="1390" y="-134.2" font-family="DejaVu Sans" font-size="11.00" fill="#0f172a">Regional S3</text>
<text text-anchor="middle" x="1390" y="-122.2" font-family="DejaVu Sans" font-size="11.00" fill="#0f172a">Documents</text>
</g>
<!-- wlam&#45;&gt;ws3 -->
<g id="edge14" class="edge">
<title>wlam&#45;&gt;ws3</title>
<path fill="none" stroke="#64748b" stroke-width="1.3" d="M1370.5,-216.78C1370.5,-216.78 1370.5,-157.79 1370.5,-157.79"/>
<polygon fill="#64748b" stroke="#64748b" stroke-width="1.3" points="1373.13,-157.79 1370.5,-150.29 1367.88,-157.79 1373.13,-157.79"/>
<text text-anchor="middle" x="1416.5" y="-176.8" font-family="DejaVu Sans" font-size="9.00" fill="#334155">regional documents</text>
</g>
<!-- dbw -->
<g id="node19" class="node">
<title>dbw</title>
<path fill="#f3e8ff" stroke="#334155" stroke-width="1.3" d="M1198.5,-54C1198.5,-54 1047.5,-54 1047.5,-54 1041.5,-54 1035.5,-48 1035.5,-42 1035.5,-42 1035.5,-28 1035.5,-28 1035.5,-22 1041.5,-16 1047.5,-16 1047.5,-16 1198.5,-16 1198.5,-16 1204.5,-16 1210.5,-22 1210.5,-28 1210.5,-28 1210.5,-42 1210.5,-42 1210.5,-48 1204.5,-54 1198.5,-54"/>
<text text-anchor="middle" x="1123" y="-38.2" font-family="DejaVu Sans" font-size="11.00" fill="#0f172a">DynamoDB MRSC</text>
<text text-anchor="middle" x="1123" y="-26.2" font-family="DejaVu Sans" font-size="11.00" fill="#0f172a">Active Replica — us&#45;west&#45;2</text>
</g>
<!-- wlam&#45;&gt;dbw -->
<g id="edge12" class="edge">
<title>wlam&#45;&gt;dbw</title>
<path fill="none" stroke="#64748b" stroke-width="1.3" d="M1326,-216.63C1326,-168.37 1326,-41 1326,-41 1326,-41 1218.06,-41 1218.06,-41"/>
<polygon fill="#64748b" stroke="#64748b" stroke-width="1.3" points="1218.06,-38.38 1210.56,-41 1218.06,-43.63 1218.06,-38.38"/>
<text text-anchor="middle" x="1250" y="-128.8" font-family="DejaVu Sans" font-size="9.00" fill="#334155">transactional state + outbox</text>
</g>
<!-- wpub -->
<g id="node14" class="node">
<title>wpub</title>
<path fill="#f8fafc" stroke="#334155" stroke-width="1.3" d="M1558,-396.74C1558,-396.74 1456,-396.74 1456,-396.74 1450,-396.74 1444,-390.74 1444,-384.74 1444,-384.74 1444,-370.74 1444,-370.74 1444,-364.74 1450,-358.74 1456,-358.74 1456,-358.74 1558,-358.74 1558,-358.74 1564,-358.74 1570,-364.74 1570,-370.74 1570,-370.74 1570,-384.74 1570,-384.74 1570,-390.74 1564,-396.74 1558,-396.74"/>
<text text-anchor="middle" x="1507" y="-380.94" font-family="DejaVu Sans" font-size="11.00" fill="#0f172a">Outbox Publisher</text>
<text text-anchor="middle" x="1507" y="-368.94" font-family="DejaVu Sans" font-size="11.00" fill="#0f172a">1&#45;minute schedule</text>
</g>
<!-- wq -->
<g id="node15" class="node">
<title>wq</title>
<path fill="#f8fafc" stroke="#334155" stroke-width="1.3" d="M1564,-252.87C1564,-252.87 1438,-252.87 1438,-252.87 1432,-252.87 1426,-246.87 1426,-240.87 1426,-240.87 1426,-228.87 1426,-228.87 1426,-222.87 1432,-216.87 1438,-216.87 1438,-216.87 1564,-216.87 1564,-216.87 1570,-216.87 1576,-222.87 1576,-228.87 1576,-228.87 1576,-240.87 1576,-240.87 1576,-246.87 1570,-252.87 1564,-252.87"/>
<text text-anchor="middle" x="1501" y="-232.07" font-family="DejaVu Sans" font-size="11.00" fill="#0f172a">SQS Processing Queue</text>
</g>
<!-- wpub&#45;&gt;wq -->
<g id="edge18" class="edge">
<title>wpub&#45;&gt;wq</title>
<path fill="none" stroke="#64748b" stroke-width="1.3" d="M1528,-358.47C1528,-358.47 1528,-260.43 1528,-260.43"/>
<polygon fill="#64748b" stroke="#64748b" stroke-width="1.3" points="1530.63,-260.43 1528,-252.93 1525.38,-260.43 1530.63,-260.43"/>
</g>
<!-- ww -->
<g id="node16" class="node">
<title>ww</title>
<path fill="#f8fafc" stroke="#334155" stroke-width="1.3" d="M1563.5,-149C1563.5,-149 1476.5,-149 1476.5,-149 1470.5,-149 1464.5,-143 1464.5,-137 1464.5,-137 1464.5,-125 1464.5,-125 1464.5,-119 1470.5,-113 1476.5,-113 1476.5,-113 1563.5,-113 1563.5,-113 1569.5,-113 1575.5,-119 1575.5,-125 1575.5,-125 1575.5,-137 1575.5,-137 1575.5,-143 1569.5,-149 1563.5,-149"/>
<text text-anchor="middle" x="1520" y="-128.2" font-family="DejaVu Sans" font-size="11.00" fill="#0f172a">Worker Lambda</text>
</g>
<!-- wq&#45;&gt;ww -->
<g id="edge20" class="edge">
<title>wq&#45;&gt;ww</title>
<path fill="none" stroke="#64748b" stroke-width="1.3" d="M1520,-216.78C1520,-216.78 1520,-156.73 1520,-156.73"/>
<polygon fill="#64748b" stroke="#64748b" stroke-width="1.3" points="1522.63,-156.73 1520,-149.23 1517.38,-156.73 1522.63,-156.73"/>
</g>
<!-- ww&#45;&gt;dbw -->
<g id="edge22" class="edge">
<title>ww&#45;&gt;dbw</title>
<path fill="none" stroke="#64748b" stroke-width="1.3" d="M1520,-112.59C1520,-82.96 1520,-28 1520,-28 1520,-28 1218.11,-28 1218.11,-28"/>
<polygon fill="#64748b" stroke="#64748b" stroke-width="1.3" points="1218.11,-25.38 1210.61,-28 1218.11,-30.63 1218.11,-25.38"/>
<text text-anchor="middle" x="1410" y="-80.8" font-family="DejaVu Sans" font-size="9.00" fill="#334155">claim + result</text>
</g>
<!-- dbe&#45;&gt;epub -->
<g id="edge15" class="edge">
<title>dbe&#45;&gt;epub</title>
<path fill="none" stroke="#64748b" stroke-width="1.3" d="M920.82,-137C871.94,-137 820.45,-137 820.45,-137 820.45,-137 820.45,-294 820.45,-294 820.45,-294 556,-294 556,-294 556,-294 556,-351.24 556,-351.24"/>
<polygon fill="#64748b" stroke="#64748b" stroke-width="1.3" points="553.38,-351.24 556,-358.74 558.63,-351.24 553.38,-351.24"/>
<text text-anchor="middle" x="1186.5" y="-232.67" font-family="DejaVu Sans" font-size="9.00" fill="#334155">pending outbox</text>
</g>
<!-- dbe&#45;&gt;dbw -->
<g id="edge23" class="edge">
<title>dbe&#45;&gt;dbw</title>
<path fill="none" stroke="#7c3aed" stroke-width="2" d="M1064.25,-104.07C1064.25,-104.07 1064.25,-61.57 1064.25,-61.57"/>
<polygon fill="#7c3aed" stroke="#7c3aed" stroke-width="2" points="1066.88,-61.57 1064.25,-54.07 1061.63,-61.57 1066.88,-61.57"/>
<polygon fill="#7c3aed" stroke="#7c3aed" stroke-width="2" points="1061.63,-104.07 1064.25,-111.57 1066.88,-104.07 1061.63,-104.07"/>
<text text-anchor="middle" x="1063" y="-80.8" font-family="DejaVu Sans" font-size="9.00" fill="#334155">MRSC replication</text>
</g>
<!-- dbw&#45;&gt;wpub -->
<g id="edge16" class="edge">
<title>dbw&#45;&gt;wpub</title>
<path fill="none" stroke="#64748b" stroke-width="1.3" d="M1171.33,-54.09C1171.33,-118.83 1171.33,-326 1171.33,-326 1171.33,-326 1486,-326 1486,-326 1486,-326 1486,-350.97 1486,-350.97"/>
<polygon fill="#64748b" stroke="#64748b" stroke-width="1.3" points="1483.38,-350.97 1486,-358.47 1488.63,-350.97 1483.38,-350.97"/>
<text text-anchor="middle" x="1658.5" y="-176.8" font-family="DejaVu Sans" font-size="9.00" fill="#334155">pending outbox</text>
</g>
<!-- witness -->
<g id="node20" class="node">
<title>witness</title>
<ellipse fill="#fae8ff" stroke="#334155" stroke-width="1.3" cx="980" cy="-234.87" rx="109.7" ry="26.74"/>
<text text-anchor="middle" x="980" y="-238.07" font-family="DejaVu Sans" font-size="11.00" fill="#0f172a">Witness — us&#45;east&#45;2</text>
<text text-anchor="middle" x="980" y="-226.07" font-family="DejaVu Sans" font-size="11.00" fill="#0f172a">No application compute</text>
</g>
<!-- witness&#45;&gt;dbe -->
<g id="edge24" class="edge">
<title>witness&#45;&gt;dbe</title>
<path fill="none" stroke="#7c3aed" stroke-width="1.3" stroke-dasharray="5,2" d="M1005.3,-208.66C1005.3,-190.51 1005.3,-166.75 1005.3,-150.32"/>
</g>
<!-- witness&#45;&gt;dbw -->
<g id="edge25" class="edge">
<title>witness&#45;&gt;dbw</title>
<path fill="none" stroke="#7c3aed" stroke-width="1.3" stroke-dasharray="5,2" d="M1037.96,-212C1080.96,-212 1132.17,-212 1132.17,-212 1132.17,-212 1132.17,-100.15 1132.17,-54.28"/>
</g>
</g>
</svg>
