<?xml version="1.0" encoding="UTF-8" standalone="no"?>
<!DOCTYPE svg PUBLIC "-//W3C//DTD SVG 1.1//EN"
 "http://www.w3.org/Graphics/SVG/1.1/DTD/svg11.dtd">
<!-- Generated by graphviz version 2.42.4 (0)
 -->
<!-- Title: G Pages: 1 -->
<svg width="1345pt" height="266pt"
 viewBox="0.00 0.00 1345.40 266.40" xmlns="http://www.w3.org/2000/svg" xmlns:xlink="http://www.w3.org/1999/xlink">
<g id="graph0" class="graph" transform="scale(1 1) rotate(0) translate(25.2 241.2)">
<title>G</title>
<polygon fill="white" stroke="transparent" points="-25.2,25.2 -25.2,-241.2 1320.2,-241.2 1320.2,25.2 -25.2,25.2"/>
<text text-anchor="middle" x="251.5" y="-197.6" font-family="DejaVu Sans" font-size="18.00">C4 Context — People, Platform, and External Systems</text>
<!-- person -->
<g id="node1" class="node">
<title>person</title>
<path fill="#e0f2fe" stroke="#334155" stroke-width="1.3" d="M310,-120C310,-120 12,-120 12,-120 6,-120 0,-114 0,-108 0,-108 0,-94 0,-94 0,-88 6,-82 12,-82 12,-82 310,-82 310,-82 316,-82 322,-88 322,-94 322,-94 322,-108 322,-108 322,-114 316,-120 310,-120"/>
<text text-anchor="middle" x="161" y="-104.2" font-family="DejaVu Sans" font-size="11.00" fill="#0f172a">Engineering Leader / Job Seeker</text>
<text text-anchor="middle" x="161" y="-92.2" font-family="DejaVu Sans" font-size="11.00" fill="#0f172a">Uploads resumes, matches roles, prepares interviews</text>
</g>
<!-- platform -->
<g id="node2" class="node">
<title>platform</title>
<polygon fill="#dbeafe" stroke="#334155" stroke-width="2" points="744,-126 498,-126 494,-122 494,-76 740,-76 744,-80 744,-126"/>
<polyline fill="none" stroke="#334155" stroke-width="2" points="740,-122 494,-122 "/>
<polyline fill="none" stroke="#334155" stroke-width="2" points="740,-122 740,-76 "/>
<polyline fill="none" stroke="#334155" stroke-width="2" points="740,-122 744,-126 "/>
<text text-anchor="middle" x="619" y="-110.2" font-family="DejaVu Sans" font-size="11.00" fill="#0f172a">AI Resume Coach</text>
<text text-anchor="middle" x="619" y="-98.2" font-family="DejaVu Sans" font-size="11.00" fill="#0f172a">Secure, cloud&#45;native portfolio application</text>
<text text-anchor="middle" x="619" y="-86.2" font-family="DejaVu Sans" font-size="11.00" fill="#0f172a">with certified active&#45;active resilience</text>
</g>
<!-- person&#45;&gt;platform -->
<g id="edge1" class="edge">
<title>person&#45;&gt;platform</title>
<path fill="none" stroke="#64748b" stroke-width="1.3" d="M322.15,-101C322.15,-101 486.19,-101 486.19,-101"/>
<polygon fill="#64748b" stroke="#64748b" stroke-width="1.3" points="486.19,-103.63 493.69,-101 486.19,-98.38 486.19,-103.63"/>
<text text-anchor="middle" x="408" y="-103.8" font-family="DejaVu Sans" font-size="9.00" fill="#334155">Uses via browser / HTTPS</text>
</g>
<!-- openai -->
<g id="node3" class="node">
<title>openai</title>
<path fill="#dcfce7" stroke="#334155" stroke-width="1.3" d="M1191.5,-120C1191.5,-120 1046.5,-120 1046.5,-120 1040.5,-120 1034.5,-114 1034.5,-108 1034.5,-108 1034.5,-94 1034.5,-94 1034.5,-88 1040.5,-82 1046.5,-82 1046.5,-82 1191.5,-82 1191.5,-82 1197.5,-82 1203.5,-88 1203.5,-94 1203.5,-94 1203.5,-108 1203.5,-108 1203.5,-114 1197.5,-120 1191.5,-120"/>
<text text-anchor="middle" x="1119" y="-104.2" font-family="DejaVu Sans" font-size="11.00" fill="#0f172a">OpenAI API</text>
<text text-anchor="middle" x="1119" y="-92.2" font-family="DejaVu Sans" font-size="11.00" fill="#0f172a">Optional analysis provider</text>
</g>
<!-- platform&#45;&gt;openai -->
<g id="edge2" class="edge">
<title>platform&#45;&gt;openai</title>
<path fill="none" stroke="#64748b" stroke-width="1.3" d="M744.2,-107.33C744.2,-107.33 1026.69,-107.33 1026.69,-107.33"/>
<polygon fill="#64748b" stroke="#64748b" stroke-width="1.3" points="1026.69,-109.96 1034.19,-107.33 1026.69,-104.71 1026.69,-109.96"/>
<text text-anchor="middle" x="843.5" y="-113.8" font-family="DejaVu Sans" font-size="9.00" fill="#334155">Sends selected analysis prompts</text>
<text text-anchor="middle" x="843.5" y="-103.8" font-family="DejaVu Sans" font-size="9.00" fill="#334155">when OpenAI provider enabled</text>
</g>
<!-- aws -->
<g id="node4" class="node">
<title>aws</title>
<path fill="#fef3c7" stroke="#334155" stroke-width="1.3" d="M1283,-38C1283,-38 955,-38 955,-38 949,-38 943,-32 943,-26 943,-26 943,-12 943,-12 943,-6 949,0 955,0 955,0 1283,0 1283,0 1289,0 1295,-6 1295,-12 1295,-12 1295,-26 1295,-26 1295,-32 1289,-38 1283,-38"/>
<text text-anchor="middle" x="1119" y="-22.2" font-family="DejaVu Sans" font-size="11.00" fill="#0f172a">AWS Platform Services</text>
<text text-anchor="middle" x="1119" y="-10.2" font-family="DejaVu Sans" font-size="11.00" fill="#0f172a">Identity, edge, compute, messaging, storage, observability</text>
</g>
<!-- platform&#45;&gt;aws -->
<g id="edge3" class="edge">
<title>platform&#45;&gt;aws</title>
<path fill="none" stroke="#64748b" stroke-width="1.3" d="M744.01,-94.67C851.38,-94.67 989,-94.67 989,-94.67 989,-94.67 989,-45.59 989,-45.59"/>
<polygon fill="#64748b" stroke="#64748b" stroke-width="1.3" points="991.63,-45.59 989,-38.09 986.38,-45.59 991.63,-45.59"/>
<text text-anchor="middle" x="843.5" y="-58.8" font-family="DejaVu Sans" font-size="9.00" fill="#334155">Runs on</text>
</g>
<!-- email -->
<g id="node5" class="node">
<title>email</title>
<path fill="#fce7f3" stroke="#334155" stroke-width="1.3" d="M1185.5,-188C1185.5,-188 1052.5,-188 1052.5,-188 1046.5,-188 1040.5,-182 1040.5,-176 1040.5,-176 1040.5,-162 1040.5,-162 1040.5,-156 1046.5,-150 1052.5,-150 1052.5,-150 1185.5,-150 1185.5,-150 1191.5,-150 1197.5,-156 1197.5,-162 1197.5,-162 1197.5,-176 1197.5,-176 1197.5,-182 1191.5,-188 1185.5,-188"/>
<text text-anchor="middle" x="1119" y="-172.2" font-family="DejaVu Sans" font-size="11.00" fill="#0f172a">Email Recipient</text>
<text text-anchor="middle" x="1119" y="-160.2" font-family="DejaVu Sans" font-size="11.00" fill="#0f172a">Registration notification</text>
</g>
<!-- platform&#45;&gt;email -->
<g id="edge4" class="edge">
<title>platform&#45;&gt;email</title>
<path fill="none" stroke="#64748b" stroke-width="1.3" d="M619,-126.32C619,-145.65 619,-169 619,-169 619,-169 1032.82,-169 1032.82,-169"/>
<polygon fill="#64748b" stroke="#64748b" stroke-width="1.3" points="1032.83,-171.63 1040.32,-169 1032.82,-166.38 1032.83,-171.63"/>
<text text-anchor="middle" x="843.5" y="-171.8" font-family="DejaVu Sans" font-size="9.00" fill="#334155">Publishes registration notification</text>
</g>
<!-- github -->
<g id="node6" class="node">
<title>github</title>
<path fill="#f1f5f9" stroke="#334155" stroke-width="1.3" d="M210.5,-38C210.5,-38 111.5,-38 111.5,-38 105.5,-38 99.5,-32 99.5,-26 99.5,-26 99.5,-12 99.5,-12 99.5,-6 105.5,0 111.5,0 111.5,0 210.5,0 210.5,0 216.5,0 222.5,-6 222.5,-12 222.5,-12 222.5,-26 222.5,-26 222.5,-32 216.5,-38 210.5,-38"/>
<text text-anchor="middle" x="161" y="-22.2" font-family="DejaVu Sans" font-size="11.00" fill="#0f172a">GitHub Actions</text>
<text text-anchor="middle" x="161" y="-10.2" font-family="DejaVu Sans" font-size="11.00" fill="#0f172a">OIDC&#45;based CI/CD</text>
</g>
<!-- github&#45;&gt;platform -->
<g id="edge6" class="edge">
<title>github&#45;&gt;platform</title>
<path fill="none" stroke="#64748b" stroke-width="1.3" d="M222.77,-25.33C347.78,-25.33 619,-25.33 619,-25.33 619,-25.33 619,-68.3 619,-68.3"/>
<polygon fill="#64748b" stroke="#64748b" stroke-width="1.3" points="616.38,-68.3 619,-75.8 621.63,-68.3 616.38,-68.3"/>
<text text-anchor="middle" x="408" y="-58.8" font-family="DejaVu Sans" font-size="9.00" fill="#334155">Releases regional packages</text>
</g>
<!-- github&#45;&gt;aws -->
<g id="edge5" class="edge">
<title>github&#45;&gt;aws</title>
<path fill="none" stroke="#64748b" stroke-width="1.3" d="M222.75,-12.67C222.75,-12.67 935.11,-12.67 935.11,-12.67"/>
<polygon fill="#64748b" stroke="#64748b" stroke-width="1.3" points="935.11,-15.29 942.61,-12.67 935.11,-10.04 935.11,-15.29"/>
<text text-anchor="middle" x="619" y="-7.8" font-family="DejaVu Sans" font-size="9.00" fill="#334155">Builds, validates, plans, deploys</text>
</g>
</g>
</svg>
