<svg xmlns="http://www.w3.org/2000/svg" width="1600" height="900"><rect width="1600" height="900" fill="#f8fafc"/><text x="80" y="90" font-family="Arial" font-size="48" font-weight="700" fill="#17233c">Certified Request and Processing Flow</text><text x="80" y="135" font-family="Arial" font-size="24" fill="#4a5872">Idempotent, owner-region aware, durable asynchronous execution</text><defs><marker id="a" markerWidth="12" markerHeight="12" refX="10" refY="6" orient="auto"><path d="M0,0 L12,6 L0,12 z" fill="#47658f"/></marker></defs><rect x="80" y="280" width="210" height="170" rx="24" fill="#eef3fa" stroke="#47658f" stroke-width="3"/><text x="105" y="335" font-family="Arial" font-size="25" font-weight="700" fill="#17233c">Global API</text><text x="105" y="380" font-family="Arial" font-size="20" fill="#34445e">healthy site</text><rect x="330" y="280" width="210" height="170" rx="24" fill="#eef3fa" stroke="#47658f" stroke-width="3"/><text x="355" y="335" font-family="Arial" font-size="25" font-weight="700" fill="#17233c">API Lambda</text><text x="355" y="380" font-family="Arial" font-size="20" fill="#34445e">auth + idempotency</text><rect x="580" y="280" width="210" height="170" rx="24" fill="#eef3fa" stroke="#47658f" stroke-width="3"/><text x="605" y="335" font-family="Arial" font-size="25" font-weight="700" fill="#17233c">DynamoDB</text><text x="605" y="380" font-family="Arial" font-size="20" fill="#34445e">work + outbox</text><rect x="830" y="280" width="210" height="170" rx="24" fill="#eef3fa" stroke="#47658f" stroke-width="3"/><text x="855" y="335" font-family="Arial" font-size="25" font-weight="700" fill="#17233c">Publisher</text><text x="855" y="380" font-family="Arial" font-size="20" fill="#34445e">owner queue</text><rect x="1080" y="280" width="210" height="170" rx="24" fill="#eef3fa" stroke="#47658f" stroke-width="3"/><text x="1105" y="335" font-family="Arial" font-size="25" font-weight="700" fill="#17233c">SQS</text><text x="1105" y="380" font-family="Arial" font-size="20" fill="#34445e">durable backlog</text><rect x="1330" y="280" width="210" height="170" rx="24" fill="#eef3fa" stroke="#47658f" stroke-width="3"/><text x="1355" y="335" font-family="Arial" font-size="25" font-weight="700" fill="#17233c">Worker</text><text x="1355" y="380" font-family="Arial" font-size="20" fill="#34445e">state transition</text><line x1="290" y1="365" x2="325" y2="365" stroke="#47658f" stroke-width="5" marker-end="url(#a)"/><line x1="540" y1="365" x2="575" y2="365" stroke="#47658f" stroke-width="5" marker-end="url(#a)"/><line x1="790" y1="365" x2="825" y2="365" stroke="#47658f" stroke-width="5" marker-end="url(#a)"/><line x1="1040" y1="365" x2="1075" y2="365" stroke="#47658f" stroke-width="5" marker-end="url(#a)"/><line x1="1290" y1="365" x2="1325" y2="365" stroke="#47658f" stroke-width="5" marker-end="url(#a)"/><rect x="270" y="560" width="1060" height="170" rx="28" fill="#eaf7ef" stroke="#3c8b5f" stroke-width="4"/><text x="320" y="615" font-family="Arial" font-size="28" font-weight="700" fill="#246443">Result and recovery guarantees</text><text x="320" y="665" font-family="Arial" font-size="23" fill="#234332">Duplicate delivery is safe • ownerRegion is persisted • queue backlog survives worker interruption</text><text x="320" y="705" font-family="Arial" font-size="23" fill="#234332">Restoration resumes processing • completed state is readable through either active API</text></svg>