<?xml version="1.0" encoding="UTF-8" standalone="no"?>
<!DOCTYPE svg PUBLIC "-//W3C//DTD SVG 1.1//EN"
 "http://www.w3.org/Graphics/SVG/1.1/DTD/svg11.dtd">
<!-- Generated by graphviz version 2.42.4 (0)
 -->
<!-- Title: G Pages: 1 -->
<svg width="1456pt" height="272pt"
 viewBox="0.00 0.00 1456.40 272.40" xmlns="http://www.w3.org/2000/svg" xmlns:xlink="http://www.w3.org/1999/xlink">
<g id="graph0" class="graph" transform="scale(1 1) rotate(0) translate(25.2 247.2)">
<title>G</title>
<polygon fill="white" stroke="transparent" points="-25.2,25.2 -25.2,-247.2 1431.2,-247.2 1431.2,25.2 -25.2,25.2"/>
<text text-anchor="middle" x="199" y="-203.6" font-family="DejaVu Sans" font-size="18.00">C4 Container View — Platform Boundaries</text>
<!-- browser -->
<g id="node1" class="node">
<title>browser</title>
<path fill="#e0f2fe" stroke="#334155" stroke-width="1.3" d="M162,-159C162,-159 12,-159 12,-159 6,-159 0,-153 0,-147 0,-147 0,-133 0,-133 0,-127 6,-121 12,-121 12,-121 162,-121 162,-121 168,-121 174,-127 174,-133 174,-133 174,-147 174,-147 174,-153 168,-159 162,-159"/>
<text text-anchor="middle" x="87" y="-143.2" font-family="DejaVu Sans" font-size="11.00" fill="#0f172a">Browser Application</text>
<text text-anchor="middle" x="87" y="-131.2" font-family="DejaVu Sans" font-size="11.00" fill="#0f172a">Static HTML/CSS/JavaScript</text>
</g>
<!-- edgebox -->
<g id="node2" class="node">
<title>edgebox</title>
<path fill="#fef3c7" stroke="#334155" stroke-width="1.3" d="M520,-194C520,-194 395,-194 395,-194 389,-194 383,-188 383,-182 383,-182 383,-168 383,-168 383,-162 389,-156 395,-156 395,-156 520,-156 520,-156 526,-156 532,-162 532,-168 532,-168 532,-182 532,-182 532,-188 526,-194 520,-194"/>
<text text-anchor="middle" x="457.5" y="-178.2" font-family="DejaVu Sans" font-size="11.00" fill="#0f172a">Global Edge</text>
<text text-anchor="middle" x="457.5" y="-166.2" font-family="DejaVu Sans" font-size="11.00" fill="#0f172a">Route 53 + CloudFront</text>
</g>
<!-- browser&#45;&gt;edgebox -->
<g id="edge1" class="edge">
<title>browser&#45;&gt;edgebox</title>
<path fill="none" stroke="#64748b" stroke-width="1.3" d="M174.23,-150C263.75,-150 390,-150 390,-150 390,-150 390,-150.58 390,-150.58"/>
<polygon fill="#64748b" stroke="#64748b" stroke-width="1.3" points="387.38,-148.3 390,-155.8 392.63,-148.3 387.38,-148.3"/>
<text text-anchor="middle" x="246.5" y="-171.8" font-family="DejaVu Sans" font-size="9.00" fill="#334155">frontend + global API</text>
</g>
<!-- identity -->
<g id="node3" class="node">
<title>identity</title>
<path fill="#f3e8ff" stroke="#334155" stroke-width="1.3" d="M507.5,-126C507.5,-126 407.5,-126 407.5,-126 401.5,-126 395.5,-120 395.5,-114 395.5,-114 395.5,-100 395.5,-100 395.5,-94 401.5,-88 407.5,-88 407.5,-88 507.5,-88 507.5,-88 513.5,-88 519.5,-94 519.5,-100 519.5,-100 519.5,-114 519.5,-114 519.5,-120 513.5,-126 507.5,-126"/>
<text text-anchor="middle" x="457.5" y="-110.2" font-family="DejaVu Sans" font-size="11.00" fill="#0f172a">Identity Container</text>
<text text-anchor="middle" x="457.5" y="-98.2" font-family="DejaVu Sans" font-size="11.00" fill="#0f172a">Cognito User Pool</text>
</g>
<!-- browser&#45;&gt;identity -->
<g id="edge3" class="edge">
<title>browser&#45;&gt;identity</title>
<path fill="none" stroke="#64748b" stroke-width="1.3" d="M174.45,-138C284.14,-138 458,-138 458,-138 458,-138 458,-133.6 458,-133.6"/>
<polygon fill="#64748b" stroke="#64748b" stroke-width="1.3" points="460.63,-133.6 458,-126.1 455.38,-133.6 460.63,-133.6"/>
<text text-anchor="middle" x="246.5" y="-120.8" font-family="DejaVu Sans" font-size="9.00" fill="#334155">authenticate</text>
</g>
<!-- regional -->
<g id="node4" class="node">
<title>regional</title>
<path fill="#dbeafe" stroke="#334155" stroke-width="2" d="M963,-144C963,-144 773,-144 773,-144 767,-144 761,-138 761,-132 761,-132 761,-94 761,-94 761,-88 767,-82 773,-82 773,-82 963,-82 963,-82 969,-82 975,-88 975,-94 975,-94 975,-132 975,-132 975,-138 969,-144 963,-144"/>
<text text-anchor="middle" x="868" y="-128.2" font-family="DejaVu Sans" font-size="11.00" fill="#0f172a">Regional Application Containers</text>
<text text-anchor="middle" x="868" y="-116.2" font-family="DejaVu Sans" font-size="11.00" fill="#0f172a">API Gateway + API Lambda</text>
<text text-anchor="middle" x="868" y="-104.2" font-family="DejaVu Sans" font-size="11.00" fill="#0f172a">Outbox Publisher + SQS + Worker</text>
<text text-anchor="middle" x="868" y="-92.2" font-family="DejaVu Sans" font-size="11.00" fill="#0f172a">Regional S3 Documents</text>
</g>
<!-- edgebox&#45;&gt;regional -->
<g id="edge2" class="edge">
<title>edgebox&#45;&gt;regional</title>
<path fill="none" stroke="#64748b" stroke-width="1.3" d="M526,-155.76C526,-144.31 526,-132 526,-132 526,-132 753.23,-132 753.23,-132"/>
<polygon fill="#64748b" stroke="#64748b" stroke-width="1.3" points="753.23,-134.63 760.73,-132 753.23,-129.38 753.23,-134.63"/>
<text text-anchor="middle" x="678.5" y="-171.8" font-family="DejaVu Sans" font-size="9.00" fill="#334155">healthy regional endpoint</text>
</g>
<!-- identity&#45;&gt;regional -->
<g id="edge4" class="edge">
<title>identity&#45;&gt;regional</title>
<path fill="none" stroke="#64748b" stroke-width="1.3" d="M519.85,-113.33C519.85,-113.33 753.17,-113.33 753.17,-113.33"/>
<polygon fill="#64748b" stroke="#64748b" stroke-width="1.3" points="753.17,-115.96 760.67,-113.33 753.17,-110.71 753.17,-115.96"/>
<text text-anchor="middle" x="678.5" y="-115.8" font-family="DejaVu Sans" font-size="9.00" fill="#334155">JWT authorization</text>
</g>
<!-- data -->
<g id="node5" class="node">
<title>data</title>
<path fill="#f3e8ff" stroke="#334155" stroke-width="2" d="M1394,-53C1394,-53 1191,-53 1191,-53 1185,-53 1179,-47 1179,-41 1179,-41 1179,-15 1179,-15 1179,-9 1185,-3 1191,-3 1191,-3 1394,-3 1394,-3 1400,-3 1406,-9 1406,-15 1406,-15 1406,-41 1406,-41 1406,-47 1400,-53 1394,-53"/>
<text text-anchor="middle" x="1292.5" y="-37.2" font-family="DejaVu Sans" font-size="11.00" fill="#0f172a">Shared Data Container</text>
<text text-anchor="middle" x="1292.5" y="-25.2" font-family="DejaVu Sans" font-size="11.00" fill="#0f172a">DynamoDB MRSC</text>
<text text-anchor="middle" x="1292.5" y="-13.2" font-family="DejaVu Sans" font-size="11.00" fill="#0f172a">East + West replicas, east&#45;2 witness</text>
</g>
<!-- regional&#45;&gt;data -->
<g id="edge5" class="edge">
<title>regional&#45;&gt;data</title>
<path fill="none" stroke="#64748b" stroke-width="1.3" d="M975.33,-88C1072.33,-88 1200,-88 1200,-88 1200,-88 1200,-60.6 1200,-60.6"/>
<polygon fill="#64748b" stroke="#64748b" stroke-width="1.3" points="1202.63,-60.6 1200,-53.1 1197.38,-60.6 1202.63,-60.6"/>
<text text-anchor="middle" x="1077" y="-70.8" font-family="DejaVu Sans" font-size="9.00" fill="#334155">strongly consistent workflow state</text>
</g>
<!-- provider -->
<g id="node6" class="node">
<title>provider</title>
<path fill="#dcfce7" stroke="#334155" stroke-width="1.3" d="M1352.5,-132C1352.5,-132 1232.5,-132 1232.5,-132 1226.5,-132 1220.5,-126 1220.5,-120 1220.5,-120 1220.5,-106 1220.5,-106 1220.5,-100 1226.5,-94 1232.5,-94 1232.5,-94 1352.5,-94 1352.5,-94 1358.5,-94 1364.5,-100 1364.5,-106 1364.5,-106 1364.5,-120 1364.5,-120 1364.5,-126 1358.5,-132 1352.5,-132"/>
<text text-anchor="middle" x="1292.5" y="-116.2" font-family="DejaVu Sans" font-size="11.00" fill="#0f172a">Analysis Provider</text>
<text text-anchor="middle" x="1292.5" y="-104.2" font-family="DejaVu Sans" font-size="11.00" fill="#0f172a">Rule&#45;based or OpenAI</text>
</g>
<!-- regional&#45;&gt;provider -->
<g id="edge6" class="edge">
<title>regional&#45;&gt;provider</title>
<path fill="none" stroke="#64748b" stroke-width="1.3" d="M975.12,-113C975.12,-113 1212.95,-113 1212.95,-113"/>
<polygon fill="#64748b" stroke="#64748b" stroke-width="1.3" points="1212.95,-115.63 1220.45,-113 1212.95,-110.38 1212.95,-115.63"/>
<text text-anchor="middle" x="1077" y="-115.8" font-family="DejaVu Sans" font-size="9.00" fill="#334155">analysis execution</text>
</g>
<!-- ops -->
<g id="node7" class="node">
<title>ops</title>
<path fill="#f1f5f9" stroke="#334155" stroke-width="1.3" d="M584,-38C584,-38 331,-38 331,-38 325,-38 319,-32 319,-26 319,-26 319,-12 319,-12 319,-6 325,0 331,0 331,0 584,0 584,0 590,0 596,-6 596,-12 596,-12 596,-26 596,-26 596,-32 590,-38 584,-38"/>
<text text-anchor="middle" x="457.5" y="-22.2" font-family="DejaVu Sans" font-size="11.00" fill="#0f172a">Operations &amp; Delivery</text>
<text text-anchor="middle" x="457.5" y="-10.2" font-family="DejaVu Sans" font-size="11.00" fill="#0f172a">Terraform + GitHub Actions + Validation Tools</text>
</g>
<!-- ops&#45;&gt;regional -->
<g id="edge7" class="edge">
<title>ops&#45;&gt;regional</title>
<path fill="none" stroke="#64748b" stroke-width="1.3" d="M564,-38.35C564,-62.5 564,-100.67 564,-100.67 564,-100.67 753.32,-100.67 753.32,-100.67"/>
<polygon fill="#64748b" stroke="#64748b" stroke-width="1.3" points="753.32,-103.29 760.82,-100.67 753.32,-98.04 753.32,-103.29"/>
<text text-anchor="middle" x="678.5" y="-70.8" font-family="DejaVu Sans" font-size="9.00" fill="#334155">deploy / certify / recover</text>
</g>
<!-- ops&#45;&gt;data -->
<g id="edge8" class="edge">
<title>ops&#45;&gt;data</title>
<path fill="none" stroke="#64748b" stroke-width="1.3" d="M596.32,-20.5C596.32,-20.5 1171.36,-20.5 1171.36,-20.5"/>
<polygon fill="#64748b" stroke="#64748b" stroke-width="1.3" points="1171.36,-23.13 1178.86,-20.5 1171.36,-17.88 1171.36,-23.13"/>
<text text-anchor="middle" x="868" y="-19.8" font-family="DejaVu Sans" font-size="9.00" fill="#334155">provision / validate</text>
</g>
</g>
</svg>
