<?xml version="1.0" encoding="UTF-8" standalone="no"?>
<!DOCTYPE svg PUBLIC "-//W3C//DTD SVG 1.1//EN"
 "http://www.w3.org/Graphics/SVG/1.1/DTD/svg11.dtd">
<!-- Generated by graphviz version 2.42.4 (0)
 -->
<!-- Title: G Pages: 1 -->
<svg width="2130pt" height="224pt"
 viewBox="0.00 0.00 2130.40 224.40" xmlns="http://www.w3.org/2000/svg" xmlns:xlink="http://www.w3.org/1999/xlink">
<g id="graph0" class="graph" transform="scale(1 1) rotate(0) translate(25.2 199.2)">
<title>G</title>
<polygon fill="white" stroke="transparent" points="-25.2,25.2 -25.2,-199.2 2105.2,-199.2 2105.2,25.2 -25.2,25.2"/>
<text text-anchor="middle" x="216" y="-155.6" font-family="DejaVu Sans" font-size="18.00">Runtime Request and Asynchronous Workflow</text>
<!-- request -->
<g id="node1" class="node">
<title>request</title>
<path fill="#e0f2fe" stroke="#334155" stroke-width="1.3" d="M199,-129C199,-129 12,-129 12,-129 6,-129 0,-123 0,-117 0,-117 0,-103 0,-103 0,-97 6,-91 12,-91 12,-91 199,-91 199,-91 205,-91 211,-97 211,-103 211,-103 211,-117 211,-117 211,-123 205,-129 199,-129"/>
<text text-anchor="middle" x="105.5" y="-113.2" font-family="DejaVu Sans" font-size="11.00" fill="#0f172a">1. Authenticated Request</text>
<text text-anchor="middle" x="105.5" y="-101.2" font-family="DejaVu Sans" font-size="11.00" fill="#0f172a">Idempotency&#45;Key + Correlation ID</text>
</g>
<!-- routing -->
<g id="node2" class="node">
<title>routing</title>
<path fill="#fef3c7" stroke="#334155" stroke-width="1.3" d="M392,-129C392,-129 272,-129 272,-129 266,-129 260,-123 260,-117 260,-117 260,-103 260,-103 260,-97 266,-91 272,-91 272,-91 392,-91 392,-91 398,-91 404,-97 404,-103 404,-103 404,-117 404,-117 404,-123 398,-129 392,-129"/>
<text text-anchor="middle" x="332" y="-113.2" font-family="DejaVu Sans" font-size="11.00" fill="#0f172a">2. Route 53 Selects</text>
<text text-anchor="middle" x="332" y="-101.2" font-family="DejaVu Sans" font-size="11.00" fill="#0f172a">Healthy Active Site</text>
</g>
<!-- request&#45;&gt;routing -->
<g id="edge1" class="edge">
<title>request&#45;&gt;routing</title>
<path fill="none" stroke="#64748b" stroke-width="1.3" d="M211.12,-110C211.12,-110 252.34,-110 252.34,-110"/>
<polygon fill="#64748b" stroke="#64748b" stroke-width="1.3" points="252.34,-112.63 259.84,-110 252.34,-107.38 252.34,-112.63"/>
</g>
<!-- api -->
<g id="node3" class="node">
<title>api</title>
<path fill="#f8fafc" stroke="#334155" stroke-width="1.3" d="M601,-129C601,-129 465,-129 465,-129 459,-129 453,-123 453,-117 453,-117 453,-103 453,-103 453,-97 459,-91 465,-91 465,-91 601,-91 601,-91 607,-91 613,-97 613,-103 613,-103 613,-117 613,-117 613,-123 607,-129 601,-129"/>
<text text-anchor="middle" x="533" y="-113.2" font-family="DejaVu Sans" font-size="11.00" fill="#0f172a">3. Regional API</text>
<text text-anchor="middle" x="533" y="-101.2" font-family="DejaVu Sans" font-size="11.00" fill="#0f172a">Validates JWT + Context</text>
</g>
<!-- routing&#45;&gt;api -->
<g id="edge2" class="edge">
<title>routing&#45;&gt;api</title>
<path fill="none" stroke="#64748b" stroke-width="1.3" d="M404.28,-110C404.28,-110 445.34,-110 445.34,-110"/>
<polygon fill="#64748b" stroke="#64748b" stroke-width="1.3" points="445.34,-112.63 452.84,-110 445.34,-107.38 445.34,-112.63"/>
</g>
<!-- txn -->
<g id="node4" class="node">
<title>txn</title>
<path fill="#f3e8ff" stroke="#334155" stroke-width="1.3" d="M859,-135C859,-135 674,-135 674,-135 668,-135 662,-129 662,-123 662,-123 662,-97 662,-97 662,-91 668,-85 674,-85 674,-85 859,-85 859,-85 865,-85 871,-91 871,-97 871,-97 871,-123 871,-123 871,-129 865,-135 859,-135"/>
<text text-anchor="middle" x="766.5" y="-119.2" font-family="DejaVu Sans" font-size="11.00" fill="#0f172a">4. DynamoDB Transaction</text>
<text text-anchor="middle" x="766.5" y="-107.2" font-family="DejaVu Sans" font-size="11.00" fill="#0f172a">Workflow + Deterministic Outbox</text>
<text text-anchor="middle" x="766.5" y="-95.2" font-family="DejaVu Sans" font-size="11.00" fill="#0f172a">ownerRegion recorded</text>
</g>
<!-- api&#45;&gt;txn -->
<g id="edge3" class="edge">
<title>api&#45;&gt;txn</title>
<path fill="none" stroke="#64748b" stroke-width="1.3" d="M613.03,-110C613.03,-110 654.32,-110 654.32,-110"/>
<polygon fill="#64748b" stroke="#64748b" stroke-width="1.3" points="654.32,-112.63 661.82,-110 654.32,-107.38 654.32,-112.63"/>
</g>
<!-- accepted -->
<g id="node5" class="node">
<title>accepted</title>
<path fill="#dcfce7" stroke="#334155" stroke-width="1.3" d="M1157.5,-146C1157.5,-146 1037.5,-146 1037.5,-146 1031.5,-146 1025.5,-140 1025.5,-134 1025.5,-134 1025.5,-120 1025.5,-120 1025.5,-114 1031.5,-108 1037.5,-108 1037.5,-108 1157.5,-108 1157.5,-108 1163.5,-108 1169.5,-114 1169.5,-120 1169.5,-120 1169.5,-134 1169.5,-134 1169.5,-140 1163.5,-146 1157.5,-146"/>
<text text-anchor="middle" x="1097.5" y="-130.2" font-family="DejaVu Sans" font-size="11.00" fill="#0f172a">5. 202 Accepted</text>
<text text-anchor="middle" x="1097.5" y="-118.2" font-family="DejaVu Sans" font-size="11.00" fill="#0f172a">Stable work identifier</text>
</g>
<!-- txn&#45;&gt;accepted -->
<g id="edge4" class="edge">
<title>txn&#45;&gt;accepted</title>
<path fill="none" stroke="#64748b" stroke-width="1.3" d="M871.23,-121.5C871.23,-121.5 1017.87,-121.5 1017.87,-121.5"/>
<polygon fill="#64748b" stroke="#64748b" stroke-width="1.3" points="1017.87,-124.13 1025.37,-121.5 1017.87,-118.88 1017.87,-124.13"/>
</g>
<!-- pub -->
<g id="node6" class="node">
<title>pub</title>
<path fill="#f8fafc" stroke="#334155" stroke-width="1.3" d="M1161,-78C1161,-78 1034,-78 1034,-78 1028,-78 1022,-72 1022,-66 1022,-66 1022,-52 1022,-52 1022,-46 1028,-40 1034,-40 1034,-40 1161,-40 1161,-40 1167,-40 1173,-46 1173,-52 1173,-52 1173,-66 1173,-66 1173,-72 1167,-78 1161,-78"/>
<text text-anchor="middle" x="1097.5" y="-62.2" font-family="DejaVu Sans" font-size="11.00" fill="#0f172a">6. Scheduled Publisher</text>
<text text-anchor="middle" x="1097.5" y="-50.2" font-family="DejaVu Sans" font-size="11.00" fill="#0f172a">Claims pending outbox</text>
</g>
<!-- txn&#45;&gt;pub -->
<g id="edge5" class="edge">
<title>txn&#45;&gt;pub</title>
<path fill="none" stroke="#64748b" stroke-width="1.3" d="M871.03,-92.67C960.18,-92.67 1074,-92.67 1074,-92.67 1074,-92.67 1074,-85.69 1074,-85.69"/>
<polygon fill="#64748b" stroke="#64748b" stroke-width="1.3" points="1076.63,-85.69 1074,-78.19 1071.38,-85.69 1076.63,-85.69"/>
<text text-anchor="middle" x="946.5" y="-97.8" font-family="DejaVu Sans" font-size="9.00" fill="#334155">PENDING</text>
</g>
<!-- pub&#45;&gt;txn -->
<g id="edge7" class="edge">
<title>pub&#45;&gt;txn</title>
<path fill="none" stroke="#64748b" stroke-width="1.3" d="M1122,-78.21C1122,-89.01 1122,-100.33 1122,-100.33 1122,-100.33 878.74,-100.33 878.74,-100.33"/>
<polygon fill="#64748b" stroke="#64748b" stroke-width="1.3" points="878.74,-97.71 871.24,-100.33 878.74,-102.96 878.74,-97.71"/>
<text text-anchor="middle" x="946.5" y="-49.8" font-family="DejaVu Sans" font-size="9.00" fill="#334155">mark delivered</text>
</g>
<!-- queue -->
<g id="node7" class="node">
<title>queue</title>
<path fill="#f8fafc" stroke="#334155" stroke-width="1.3" d="M1387,-78C1387,-78 1267,-78 1267,-78 1261,-78 1255,-72 1255,-66 1255,-66 1255,-52 1255,-52 1255,-46 1261,-40 1267,-40 1267,-40 1387,-40 1387,-40 1393,-40 1399,-46 1399,-52 1399,-52 1399,-66 1399,-66 1399,-72 1393,-78 1387,-78"/>
<text text-anchor="middle" x="1327" y="-62.2" font-family="DejaVu Sans" font-size="11.00" fill="#0f172a">7. Owner&#45;Region SQS</text>
<text text-anchor="middle" x="1327" y="-50.2" font-family="DejaVu Sans" font-size="11.00" fill="#0f172a">Durable transport</text>
</g>
<!-- pub&#45;&gt;queue -->
<g id="edge6" class="edge">
<title>pub&#45;&gt;queue</title>
<path fill="none" stroke="#64748b" stroke-width="1.3" d="M1173.28,-59C1173.28,-59 1247.3,-59 1247.3,-59"/>
<polygon fill="#64748b" stroke="#64748b" stroke-width="1.3" points="1247.3,-61.63 1254.8,-59 1247.3,-56.38 1247.3,-61.63"/>
<text text-anchor="middle" x="1214" y="-61.8" font-family="DejaVu Sans" font-size="9.00" fill="#334155">publish</text>
</g>
<!-- worker -->
<g id="node8" class="node">
<title>worker</title>
<path fill="#f8fafc" stroke="#334155" stroke-width="1.3" d="M1712,-84C1712,-84 1556,-84 1556,-84 1550,-84 1544,-78 1544,-72 1544,-72 1544,-46 1544,-46 1544,-40 1550,-34 1556,-34 1556,-34 1712,-34 1712,-34 1718,-34 1724,-40 1724,-46 1724,-46 1724,-72 1724,-72 1724,-78 1718,-84 1712,-84"/>
<text text-anchor="middle" x="1634" y="-68.2" font-family="DejaVu Sans" font-size="11.00" fill="#0f172a">8. Worker</text>
<text text-anchor="middle" x="1634" y="-56.2" font-family="DejaVu Sans" font-size="11.00" fill="#0f172a">Validates ownership + state</text>
<text text-anchor="middle" x="1634" y="-44.2" font-family="DejaVu Sans" font-size="11.00" fill="#0f172a">Claims lease</text>
</g>
<!-- queue&#45;&gt;worker -->
<g id="edge8" class="edge">
<title>queue&#45;&gt;worker</title>
<path fill="none" stroke="#64748b" stroke-width="1.3" d="M1399.37,-59C1399.37,-59 1536.49,-59 1536.49,-59"/>
<polygon fill="#64748b" stroke="#64748b" stroke-width="1.3" points="1536.49,-61.63 1543.99,-59 1536.49,-56.38 1536.49,-61.63"/>
<text text-anchor="middle" x="1471.5" y="-61.8" font-family="DejaVu Sans" font-size="9.00" fill="#334155">at&#45;least&#45;once delivery</text>
</g>
<!-- result -->
<g id="node9" class="node">
<title>result</title>
<path fill="#dcfce7" stroke="#334155" stroke-width="1.3" d="M2068,-78C2068,-78 1905,-78 1905,-78 1899,-78 1893,-72 1893,-66 1893,-66 1893,-52 1893,-52 1893,-46 1899,-40 1905,-40 1905,-40 2068,-40 2068,-40 2074,-40 2080,-46 2080,-52 2080,-52 2080,-66 2080,-66 2080,-72 2074,-78 2068,-78"/>
<text text-anchor="middle" x="1986.5" y="-62.2" font-family="DejaVu Sans" font-size="11.00" fill="#0f172a">9. Terminal / Retryable State</text>
<text text-anchor="middle" x="1986.5" y="-50.2" font-family="DejaVu Sans" font-size="11.00" fill="#0f172a">Result visible from either site</text>
</g>
<!-- worker&#45;&gt;result -->
<g id="edge9" class="edge">
<title>worker&#45;&gt;result</title>
<path fill="none" stroke="#64748b" stroke-width="1.3" d="M1724.32,-59C1724.32,-59 1885.22,-59 1885.22,-59"/>
<polygon fill="#64748b" stroke="#64748b" stroke-width="1.3" points="1885.22,-61.63 1892.72,-59 1885.22,-56.38 1885.22,-61.63"/>
<text text-anchor="middle" x="1808.5" y="-61.8" font-family="DejaVu Sans" font-size="9.00" fill="#334155">conditional state transition</text>
</g>
<!-- result&#45;&gt;request -->
<g id="edge10" class="edge">
<title>result&#45;&gt;request</title>
<path fill="none" stroke="#64748b" stroke-width="1.3" stroke-dasharray="5,2" d="M1987,-39.76C1987,-28.31 1987,-16 1987,-16 1987,-16 106,-16 106,-16 106,-16 106,-83.48 106,-83.48"/>
<polygon fill="#64748b" stroke="#64748b" stroke-width="1.3" points="103.38,-83.48 106,-90.98 108.63,-83.48 103.38,-83.48"/>
<text text-anchor="middle" x="946.5" y="-2.8" font-family="DejaVu Sans" font-size="9.00" fill="#334155">poll / cross&#45;region read</text>
</g>
</g>
</svg>
