<?xml version="1.0" encoding="UTF-8" standalone="no"?>
<!DOCTYPE svg PUBLIC "-//W3C//DTD SVG 1.1//EN"
 "http://www.w3.org/Graphics/SVG/1.1/DTD/svg11.dtd">
<!-- Generated by graphviz version 2.42.4 (0)
 -->
<!-- Title: G Pages: 1 -->
<svg width="746pt" height="553pt"
 viewBox="0.00 0.00 745.90 553.40" xmlns="http://www.w3.org/2000/svg" xmlns:xlink="http://www.w3.org/1999/xlink">
<g id="graph0" class="graph" transform="scale(1 1) rotate(0) translate(25.2 528.2)">
<title>G</title>
<polygon fill="white" stroke="transparent" points="-25.2,25.2 -25.2,-528.2 720.7,-528.2 720.7,25.2 -25.2,25.2"/>
<text text-anchor="middle" x="217" y="-484.6" font-family="DejaVu Sans" font-size="18.00">Certified Failure Envelope and Recovery Paths</text>
<!-- normal -->
<g id="node1" class="node">
<title>normal</title>
<path fill="#dcfce7" stroke="#334155" stroke-width="2" d="M397,-469C397,-469 146,-469 146,-469 140,-469 134,-463 134,-457 134,-457 134,-443 134,-443 134,-437 140,-431 146,-431 146,-431 397,-431 397,-431 403,-431 409,-437 409,-443 409,-443 409,-457 409,-457 409,-463 403,-469 397,-469"/>
<text text-anchor="middle" x="271.5" y="-453.2" font-family="DejaVu Sans" font-size="11.00" fill="#0f172a">Normal: East + West Enabled</text>
<text text-anchor="middle" x="271.5" y="-441.2" font-family="DejaVu Sans" font-size="11.00" fill="#0f172a">Latency routing, symmetric application peers</text>
</g>
<!-- routefail -->
<g id="node2" class="node">
<title>routefail</title>
<path fill="#fef3c7" stroke="#334155" stroke-width="1.3" d="M242,-378C242,-378 85,-378 85,-378 79,-378 73,-372 73,-366 73,-366 73,-352 73,-352 73,-346 79,-340 85,-340 85,-340 242,-340 242,-340 248,-340 254,-346 254,-352 254,-352 254,-366 254,-366 254,-372 248,-378 242,-378"/>
<text text-anchor="middle" x="163.5" y="-362.2" font-family="DejaVu Sans" font-size="11.00" fill="#0f172a">Routing Isolation</text>
<text text-anchor="middle" x="163.5" y="-350.2" font-family="DejaVu Sans" font-size="11.00" fill="#0f172a">Disable one Route 53 record</text>
</g>
<!-- normal&#45;&gt;routefail -->
<g id="edge1" class="edge">
<title>normal&#45;&gt;routefail</title>
<path fill="none" stroke="#64748b" stroke-width="1.3" d="M214,-430.7C214,-430.7 214,-385.77 214,-385.77"/>
<polygon fill="#64748b" stroke="#64748b" stroke-width="1.3" points="216.63,-385.77 214,-378.27 211.38,-385.77 216.63,-385.77"/>
</g>
<!-- workerstop -->
<g id="node6" class="node">
<title>workerstop</title>
<path fill="#fde68a" stroke="#334155" stroke-width="1.3" d="M475.5,-378C475.5,-378 307.5,-378 307.5,-378 301.5,-378 295.5,-372 295.5,-366 295.5,-366 295.5,-352 295.5,-352 295.5,-346 301.5,-340 307.5,-340 307.5,-340 475.5,-340 475.5,-340 481.5,-340 487.5,-346 487.5,-352 487.5,-352 487.5,-366 487.5,-366 487.5,-372 481.5,-378 475.5,-378"/>
<text text-anchor="middle" x="391.5" y="-362.2" font-family="DejaVu Sans" font-size="11.00" fill="#0f172a">Worker Interruption</text>
<text text-anchor="middle" x="391.5" y="-350.2" font-family="DejaVu Sans" font-size="11.00" fill="#0f172a">Disable event&#45;source mapping</text>
</g>
<!-- normal&#45;&gt;workerstop -->
<g id="edge6" class="edge">
<title>normal&#45;&gt;workerstop</title>
<path fill="none" stroke="#64748b" stroke-width="1.3" d="M352.25,-430.7C352.25,-430.7 352.25,-385.77 352.25,-385.77"/>
<polygon fill="#64748b" stroke="#64748b" stroke-width="1.3" points="354.88,-385.77 352.25,-378.27 349.63,-385.77 354.88,-385.77"/>
</g>
<!-- survivor -->
<g id="node3" class="node">
<title>survivor</title>
<path fill="#dbeafe" stroke="#334155" stroke-width="1.3" d="M263.5,-293C263.5,-293 19.5,-293 19.5,-293 13.5,-293 7.5,-287 7.5,-281 7.5,-281 7.5,-267 7.5,-267 7.5,-261 13.5,-255 19.5,-255 19.5,-255 263.5,-255 263.5,-255 269.5,-255 275.5,-261 275.5,-267 275.5,-267 275.5,-281 275.5,-281 275.5,-287 269.5,-293 263.5,-293"/>
<text text-anchor="middle" x="141.5" y="-277.2" font-family="DejaVu Sans" font-size="11.00" fill="#0f172a">Survivor Site Continues</text>
<text text-anchor="middle" x="141.5" y="-265.2" font-family="DejaVu Sans" font-size="11.00" fill="#0f172a">Authenticated requests + new ownerRegion</text>
</g>
<!-- routefail&#45;&gt;survivor -->
<g id="edge2" class="edge">
<title>routefail&#45;&gt;survivor</title>
<path fill="none" stroke="#64748b" stroke-width="1.3" d="M163.5,-339.71C163.5,-339.71 163.5,-300.71 163.5,-300.71"/>
<polygon fill="#64748b" stroke="#64748b" stroke-width="1.3" points="166.13,-300.71 163.5,-293.21 160.88,-300.71 166.13,-300.71"/>
</g>
<!-- nonGoal -->
<g id="node10" class="node">
<title>nonGoal</title>
<polygon fill="#fee2e2" stroke="#334155" stroke-width="1.3" points="689.5,-475 439.5,-475 439.5,-425 695.5,-425 695.5,-469 689.5,-475"/>
<polyline fill="none" stroke="#334155" stroke-width="1.3" points="689.5,-475 689.5,-469 "/>
<polyline fill="none" stroke="#334155" stroke-width="1.3" points="695.5,-469 689.5,-469 "/>
<text text-anchor="middle" x="567.5" y="-459.2" font-family="DejaVu Sans" font-size="11.00" fill="#0f172a">Accepted Non&#45;Goal</text>
<text text-anchor="middle" x="567.5" y="-447.2" font-family="DejaVu Sans" font-size="11.00" fill="#0f172a">No automatic ownership reassignment</text>
<text text-anchor="middle" x="567.5" y="-435.2" font-family="DejaVu Sans" font-size="11.00" fill="#0f172a">No automatic cross&#45;region queue draining</text>
</g>
<!-- routefail&#45;&gt;nonGoal -->
<g id="edge10" class="edge">
<title>routefail&#45;&gt;nonGoal</title>
<path fill="none" stroke="#64748b" stroke-width="1.3" stroke-dasharray="5,2" d="M174,-378.03C174,-389.15 174,-401 174,-401 174,-401 455.5,-401 455.5,-401 455.5,-401 455.5,-417.43 455.5,-417.43"/>
<polygon fill="#64748b" stroke="#64748b" stroke-width="1.3" points="452.88,-417.43 455.5,-424.93 458.13,-417.43 452.88,-417.43"/>
</g>
<!-- read -->
<g id="node4" class="node">
<title>read</title>
<path fill="#f3e8ff" stroke="#334155" stroke-width="1.3" d="M271,-208C271,-208 12,-208 12,-208 6,-208 0,-202 0,-196 0,-196 0,-182 0,-182 0,-176 6,-170 12,-170 12,-170 271,-170 271,-170 277,-170 283,-176 283,-182 283,-182 283,-196 283,-196 283,-202 277,-208 271,-208"/>
<text text-anchor="middle" x="141.5" y="-192.2" font-family="DejaVu Sans" font-size="11.00" fill="#0f172a">Cross&#45;Region Read</text>
<text text-anchor="middle" x="141.5" y="-180.2" font-family="DejaVu Sans" font-size="11.00" fill="#0f172a">Result remains readable through active replica</text>
</g>
<!-- survivor&#45;&gt;read -->
<g id="edge3" class="edge">
<title>survivor&#45;&gt;read</title>
<path fill="none" stroke="#64748b" stroke-width="1.3" d="M141.5,-254.71C141.5,-254.71 141.5,-215.71 141.5,-215.71"/>
<polygon fill="#64748b" stroke="#64748b" stroke-width="1.3" points="144.13,-215.71 141.5,-208.21 138.88,-215.71 144.13,-215.71"/>
</g>
<!-- restoreRoute -->
<g id="node5" class="node">
<title>restoreRoute</title>
<path fill="#dcfce7" stroke="#334155" stroke-width="1.3" d="M241,-123C241,-123 42,-123 42,-123 36,-123 30,-117 30,-111 30,-111 30,-97 30,-97 30,-91 36,-85 42,-85 42,-85 241,-85 241,-85 247,-85 253,-91 253,-97 253,-97 253,-111 253,-111 253,-117 247,-123 241,-123"/>
<text text-anchor="middle" x="141.5" y="-107.2" font-family="DejaVu Sans" font-size="11.00" fill="#0f172a">Restore Routing</text>
<text text-anchor="middle" x="141.5" y="-95.2" font-family="DejaVu Sans" font-size="11.00" fill="#0f172a">Verify direct site, then global health</text>
</g>
<!-- read&#45;&gt;restoreRoute -->
<g id="edge4" class="edge">
<title>read&#45;&gt;restoreRoute</title>
<path fill="none" stroke="#64748b" stroke-width="1.3" d="M141.5,-169.71C141.5,-169.71 141.5,-130.71 141.5,-130.71"/>
<polygon fill="#64748b" stroke="#64748b" stroke-width="1.3" points="144.13,-130.71 141.5,-123.21 138.88,-130.71 144.13,-130.71"/>
</g>
<!-- reconcile -->
<g id="node9" class="node">
<title>reconcile</title>
<path fill="#dcfce7" stroke="#334155" stroke-width="2" d="M425,-38C425,-38 120,-38 120,-38 114,-38 108,-32 108,-26 108,-26 108,-12 108,-12 108,-6 114,0 120,0 120,0 425,0 425,0 431,0 437,-6 437,-12 437,-12 437,-26 437,-26 437,-32 431,-38 425,-38"/>
<text text-anchor="middle" x="272.5" y="-22.2" font-family="DejaVu Sans" font-size="11.00" fill="#0f172a">Final Reconciliation</text>
<text text-anchor="middle" x="272.5" y="-10.2" font-family="DejaVu Sans" font-size="11.00" fill="#0f172a">Workflow complete, queues drained, both sites healthy</text>
</g>
<!-- restoreRoute&#45;&gt;reconcile -->
<g id="edge5" class="edge">
<title>restoreRoute&#45;&gt;reconcile</title>
<path fill="none" stroke="#64748b" stroke-width="1.3" d="M180.5,-84.71C180.5,-84.71 180.5,-45.71 180.5,-45.71"/>
<polygon fill="#64748b" stroke="#64748b" stroke-width="1.3" points="183.13,-45.71 180.5,-38.21 177.88,-45.71 183.13,-45.71"/>
</g>
<!-- backlog -->
<g id="node7" class="node">
<title>backlog</title>
<path fill="#dbeafe" stroke="#334155" stroke-width="1.3" d="M487,-293C487,-293 318,-293 318,-293 312,-293 306,-287 306,-281 306,-281 306,-267 306,-267 306,-261 312,-255 318,-255 318,-255 487,-255 487,-255 493,-255 499,-261 499,-267 499,-267 499,-281 499,-281 499,-287 493,-293 487,-293"/>
<text text-anchor="middle" x="402.5" y="-277.2" font-family="DejaVu Sans" font-size="11.00" fill="#0f172a">Durable SQS Backlog</text>
<text text-anchor="middle" x="402.5" y="-265.2" font-family="DejaVu Sans" font-size="11.00" fill="#0f172a">No silent loss or reassignment</text>
</g>
<!-- workerstop&#45;&gt;backlog -->
<g id="edge7" class="edge">
<title>workerstop&#45;&gt;backlog</title>
<path fill="none" stroke="#64748b" stroke-width="1.3" d="M396.75,-339.71C396.75,-339.71 396.75,-300.71 396.75,-300.71"/>
<polygon fill="#64748b" stroke="#64748b" stroke-width="1.3" points="399.38,-300.71 396.75,-293.21 394.13,-300.71 399.38,-300.71"/>
</g>
<!-- workerstop&#45;&gt;nonGoal -->
<g id="edge11" class="edge">
<title>workerstop&#45;&gt;nonGoal</title>
<path fill="none" stroke="#64748b" stroke-width="1.3" stroke-dasharray="5,2" d="M471.5,-378.3C471.5,-378.3 471.5,-417.35 471.5,-417.35"/>
<polygon fill="#64748b" stroke="#64748b" stroke-width="1.3" points="468.88,-417.35 471.5,-424.85 474.13,-417.35 468.88,-417.35"/>
</g>
<!-- replay -->
<g id="node8" class="node">
<title>replay</title>
<path fill="#dcfce7" stroke="#334155" stroke-width="1.3" d="M512,-123C512,-123 295,-123 295,-123 289,-123 283,-117 283,-111 283,-111 283,-97 283,-97 283,-91 289,-85 295,-85 295,-85 512,-85 512,-85 518,-85 524,-91 524,-97 524,-97 524,-111 524,-111 524,-117 518,-123 512,-123"/>
<text text-anchor="middle" x="403.5" y="-107.2" font-family="DejaVu Sans" font-size="11.00" fill="#0f172a">Restore Consumer</text>
<text text-anchor="middle" x="403.5" y="-95.2" font-family="DejaVu Sans" font-size="11.00" fill="#0f172a">Idempotent replay + conditional claims</text>
</g>
<!-- backlog&#45;&gt;replay -->
<g id="edge8" class="edge">
<title>backlog&#45;&gt;replay</title>
<path fill="none" stroke="#64748b" stroke-width="1.3" d="M402.5,-254.83C402.5,-254.83 402.5,-130.6 402.5,-130.6"/>
<polygon fill="#64748b" stroke="#64748b" stroke-width="1.3" points="405.13,-130.6 402.5,-123.1 399.88,-130.6 405.13,-130.6"/>
</g>
<!-- replay&#45;&gt;reconcile -->
<g id="edge9" class="edge">
<title>replay&#45;&gt;reconcile</title>
<path fill="none" stroke="#64748b" stroke-width="1.3" d="M360,-84.71C360,-84.71 360,-45.71 360,-45.71"/>
<polygon fill="#64748b" stroke="#64748b" stroke-width="1.3" points="362.63,-45.71 360,-38.21 357.38,-45.71 362.63,-45.71"/>
</g>
</g>
</svg>
