<?xml version="1.0" encoding="UTF-8" standalone="no"?>
<!DOCTYPE svg PUBLIC "-//W3C//DTD SVG 1.1//EN"
 "http://www.w3.org/Graphics/SVG/1.1/DTD/svg11.dtd">
<!-- Generated by graphviz version 2.42.4 (0)
 -->
<!-- Title: G Pages: 1 -->
<svg width="1260pt" height="482pt"
 viewBox="0.00 0.00 1260.40 482.40" xmlns="http://www.w3.org/2000/svg" xmlns:xlink="http://www.w3.org/1999/xlink">
<g id="graph0" class="graph" transform="scale(1 1) rotate(0) translate(25.2 457.2)">
<title>G</title>
<polygon fill="white" stroke="transparent" points="-25.2,25.2 -25.2,-457.2 1235.2,-457.2 1235.2,25.2 -25.2,25.2"/>
<text text-anchor="middle" x="261" y="-413.6" font-family="DejaVu Sans" font-size="18.00">Data Ownership, Consistency, and Regional Boundaries</text>
<g id="clust1" class="cluster">
<title>cluster_shared</title>
<path fill="white" stroke="#7c3aed" stroke-width="2" d="M785,-8C785,-8 1190,-8 1190,-8 1196,-8 1202,-14 1202,-20 1202,-20 1202,-170 1202,-170 1202,-176 1196,-182 1190,-182 1190,-182 785,-182 785,-182 779,-182 773,-176 773,-170 773,-170 773,-20 773,-20 773,-14 779,-8 785,-8"/>
<text text-anchor="middle" x="930.5" y="-163.6" font-family="DejaVu Sans" font-size="18.00">Shared Strongly Consistent State</text>
</g>
<g id="clust2" class="cluster">
<title>cluster_east</title>
<path fill="white" stroke="#2563eb" d="M350,-88C350,-88 577,-88 577,-88 583,-88 589,-94 589,-100 589,-100 589,-226 589,-226 589,-232 583,-238 577,-238 577,-238 350,-238 350,-238 344,-238 338,-232 338,-226 338,-226 338,-100 338,-100 338,-94 344,-88 350,-88"/>
<text text-anchor="middle" x="463.5" y="-219.6" font-family="DejaVu Sans" font-size="18.00">East Ownership Boundary</text>
</g>
<g id="clust3" class="cluster">
<title>cluster_west</title>
<path fill="white" stroke="#0f766e" d="M347,-246C347,-246 579,-246 579,-246 585,-246 591,-252 591,-258 591,-258 591,-384 591,-384 591,-390 585,-396 579,-396 579,-396 347,-396 347,-396 341,-396 335,-390 335,-384 335,-384 335,-258 335,-258 335,-252 341,-246 347,-246"/>
<text text-anchor="middle" x="463" y="-377.6" font-family="DejaVu Sans" font-size="18.00">West Ownership Boundary</text>
</g>
<!-- state -->
<g id="node1" class="node">
<title>state</title>
<path fill="#f3e8ff" stroke="#334155" stroke-width="1.3" d="M924.5,-146C924.5,-146 795.5,-146 795.5,-146 789.5,-146 783.5,-140 783.5,-134 783.5,-134 783.5,-96 783.5,-96 783.5,-90 789.5,-84 795.5,-84 795.5,-84 924.5,-84 924.5,-84 930.5,-84 936.5,-90 936.5,-96 936.5,-96 936.5,-134 936.5,-134 936.5,-140 930.5,-146 924.5,-146"/>
<text text-anchor="middle" x="860" y="-130.2" font-family="DejaVu Sans" font-size="11.00" fill="#0f172a">Workflow State</text>
<text text-anchor="middle" x="860" y="-118.2" font-family="DejaVu Sans" font-size="11.00" fill="#0f172a">request fingerprint</text>
<text text-anchor="middle" x="860" y="-106.2" font-family="DejaVu Sans" font-size="11.00" fill="#0f172a">idempotency + version</text>
<text text-anchor="middle" x="860" y="-94.2" font-family="DejaVu Sans" font-size="11.00" fill="#0f172a">ownerRegion + status</text>
</g>
<!-- replicas -->
<g id="node3" class="node">
<title>replicas</title>
<path fill="#f3e8ff" stroke="#334155" stroke-width="1.3" d="M1182,-103C1182,-103 1029,-103 1029,-103 1023,-103 1017,-97 1017,-91 1017,-91 1017,-65 1017,-65 1017,-59 1023,-53 1029,-53 1029,-53 1182,-53 1182,-53 1188,-53 1194,-59 1194,-65 1194,-65 1194,-91 1194,-91 1194,-97 1188,-103 1182,-103"/>
<text text-anchor="middle" x="1105.5" y="-87.2" font-family="DejaVu Sans" font-size="11.00" fill="#0f172a">DynamoDB MRSC</text>
<text text-anchor="middle" x="1105.5" y="-75.2" font-family="DejaVu Sans" font-size="11.00" fill="#0f172a">East + West active replicas</text>
<text text-anchor="middle" x="1105.5" y="-63.2" font-family="DejaVu Sans" font-size="11.00" fill="#0f172a">East&#45;2 witness</text>
</g>
<!-- state&#45;&gt;replicas -->
<g id="edge1" class="edge">
<title>state&#45;&gt;replicas</title>
<path fill="none" stroke="#64748b" stroke-width="1.3" d="M936.67,-93.5C936.67,-93.5 1009.48,-93.5 1009.48,-93.5"/>
<polygon fill="#64748b" stroke="#64748b" stroke-width="1.3" points="1009.48,-96.13 1016.98,-93.5 1009.48,-90.88 1009.48,-96.13"/>
</g>
<!-- outbox -->
<g id="node2" class="node">
<title>outbox</title>
<path fill="#f3e8ff" stroke="#334155" stroke-width="1.3" d="M927,-54C927,-54 793,-54 793,-54 787,-54 781,-48 781,-42 781,-42 781,-28 781,-28 781,-22 787,-16 793,-16 793,-16 927,-16 927,-16 933,-16 939,-22 939,-28 939,-28 939,-42 939,-42 939,-48 933,-54 927,-54"/>
<text text-anchor="middle" x="860" y="-38.2" font-family="DejaVu Sans" font-size="11.00" fill="#0f172a">Deterministic Outbox</text>
<text text-anchor="middle" x="860" y="-26.2" font-family="DejaVu Sans" font-size="11.00" fill="#0f172a">PENDING → DISPATCHED</text>
</g>
<!-- outbox&#45;&gt;replicas -->
<g id="edge2" class="edge">
<title>outbox&#45;&gt;replicas</title>
<path fill="none" stroke="#64748b" stroke-width="1.3" d="M860,-54.38C860,-62.02 860,-69 860,-69 860,-69 1009.37,-69 1009.37,-69"/>
<polygon fill="#64748b" stroke="#64748b" stroke-width="1.3" points="1009.37,-71.63 1016.87,-69 1009.37,-66.38 1009.37,-71.63"/>
</g>
<!-- es3 -->
<g id="node4" class="node">
<title>es3</title>
<path fill="#f8fafc" stroke="#334155" stroke-width="1.3" d="M503,-202C503,-202 423,-202 423,-202 417,-202 411,-196 411,-190 411,-190 411,-176 411,-176 411,-170 417,-164 423,-164 423,-164 503,-164 503,-164 509,-164 515,-170 515,-176 515,-176 515,-190 515,-190 515,-196 509,-202 503,-202"/>
<text text-anchor="middle" x="463" y="-186.2" font-family="DejaVu Sans" font-size="11.00" fill="#0f172a">S3 Documents</text>
<text text-anchor="middle" x="463" y="-174.2" font-family="DejaVu Sans" font-size="11.00" fill="#0f172a">us&#45;east&#45;1</text>
</g>
<!-- warning -->
<g id="node9" class="node">
<title>warning</title>
<polygon fill="#fee2e2" stroke="#334155" stroke-width="1.3" points="962,-326 752,-326 752,-276 968,-276 968,-320 962,-326"/>
<polyline fill="none" stroke="#334155" stroke-width="1.3" points="962,-326 962,-320 "/>
<polyline fill="none" stroke="#334155" stroke-width="1.3" points="968,-320 962,-320 "/>
<text text-anchor="middle" x="860" y="-310.2" font-family="DejaVu Sans" font-size="11.00" fill="#0f172a">Regional S3 is not MRSC</text>
<text text-anchor="middle" x="860" y="-298.2" font-family="DejaVu Sans" font-size="11.00" fill="#0f172a">Document locality and recovery</text>
<text text-anchor="middle" x="860" y="-286.2" font-family="DejaVu Sans" font-size="11.00" fill="#0f172a">remain explicit operating concerns</text>
</g>
<!-- es3&#45;&gt;warning -->
<g id="edge10" class="edge">
<title>es3&#45;&gt;warning</title>
<path fill="none" stroke="#64748b" stroke-width="1.3" stroke-dasharray="5,2" d="M515.26,-183C602.18,-183 767,-183 767,-183 767,-183 767,-268.48 767,-268.48"/>
<polygon fill="#64748b" stroke="#64748b" stroke-width="1.3" points="764.38,-268.48 767,-275.98 769.63,-268.48 764.38,-268.48"/>
</g>
<!-- eq -->
<g id="node5" class="node">
<title>eq</title>
<path fill="#f8fafc" stroke="#334155" stroke-width="1.3" d="M502.5,-134C502.5,-134 423.5,-134 423.5,-134 417.5,-134 411.5,-128 411.5,-122 411.5,-122 411.5,-108 411.5,-108 411.5,-102 417.5,-96 423.5,-96 423.5,-96 502.5,-96 502.5,-96 508.5,-96 514.5,-102 514.5,-108 514.5,-108 514.5,-122 514.5,-122 514.5,-128 508.5,-134 502.5,-134"/>
<text text-anchor="middle" x="463" y="-118.2" font-family="DejaVu Sans" font-size="11.00" fill="#0f172a">SQS + Worker</text>
<text text-anchor="middle" x="463" y="-106.2" font-family="DejaVu Sans" font-size="11.00" fill="#0f172a">us&#45;east&#45;1</text>
</g>
<!-- eq&#45;&gt;state -->
<g id="edge8" class="edge">
<title>eq&#45;&gt;state</title>
<path fill="none" stroke="#64748b" stroke-width="1.3" d="M514.9,-115C514.9,-115 775.72,-115 775.72,-115"/>
<polygon fill="#64748b" stroke="#64748b" stroke-width="1.3" points="775.72,-117.63 783.22,-115 775.72,-112.38 775.72,-117.63"/>
<text text-anchor="middle" x="667.5" y="-117.8" font-family="DejaVu Sans" font-size="9.00" fill="#334155">conditional claims / results</text>
</g>
<!-- ws3 -->
<g id="node6" class="node">
<title>ws3</title>
<path fill="#f8fafc" stroke="#334155" stroke-width="1.3" d="M503,-360C503,-360 423,-360 423,-360 417,-360 411,-354 411,-348 411,-348 411,-334 411,-334 411,-328 417,-322 423,-322 423,-322 503,-322 503,-322 509,-322 515,-328 515,-334 515,-334 515,-348 515,-348 515,-354 509,-360 503,-360"/>
<text text-anchor="middle" x="463" y="-344.2" font-family="DejaVu Sans" font-size="11.00" fill="#0f172a">S3 Documents</text>
<text text-anchor="middle" x="463" y="-332.2" font-family="DejaVu Sans" font-size="11.00" fill="#0f172a">us&#45;west&#45;2</text>
</g>
<!-- ws3&#45;&gt;warning -->
<g id="edge11" class="edge">
<title>ws3&#45;&gt;warning</title>
<path fill="none" stroke="#64748b" stroke-width="1.3" stroke-dasharray="5,2" d="M463,-321.62C463,-313.98 463,-307 463,-307 463,-307 744.28,-307 744.28,-307"/>
<polygon fill="#64748b" stroke="#64748b" stroke-width="1.3" points="744.28,-309.63 751.78,-307 744.28,-304.38 744.28,-309.63"/>
</g>
<!-- wq -->
<g id="node7" class="node">
<title>wq</title>
<path fill="#f8fafc" stroke="#334155" stroke-width="1.3" d="M502.5,-292C502.5,-292 423.5,-292 423.5,-292 417.5,-292 411.5,-286 411.5,-280 411.5,-280 411.5,-266 411.5,-266 411.5,-260 417.5,-254 423.5,-254 423.5,-254 502.5,-254 502.5,-254 508.5,-254 514.5,-260 514.5,-266 514.5,-266 514.5,-280 514.5,-280 514.5,-286 508.5,-292 502.5,-292"/>
<text text-anchor="middle" x="463" y="-276.2" font-family="DejaVu Sans" font-size="11.00" fill="#0f172a">SQS + Worker</text>
<text text-anchor="middle" x="463" y="-264.2" font-family="DejaVu Sans" font-size="11.00" fill="#0f172a">us&#45;west&#45;2</text>
</g>
<!-- wq&#45;&gt;state -->
<g id="edge9" class="edge">
<title>wq&#45;&gt;state</title>
<path fill="none" stroke="#64748b" stroke-width="1.3" d="M514.9,-265C622.51,-265 860,-265 860,-265 860,-265 860,-153.58 860,-153.58"/>
<polygon fill="#64748b" stroke="#64748b" stroke-width="1.3" points="862.63,-153.58 860,-146.08 857.38,-153.58 862.63,-153.58"/>
<text text-anchor="middle" x="667.5" y="-218.8" font-family="DejaVu Sans" font-size="9.00" fill="#334155">conditional claims / results</text>
</g>
<!-- placement -->
<g id="node8" class="node">
<title>placement</title>
<path fill="#fef3c7" stroke="#334155" stroke-width="2" d="M203,-208C203,-208 12,-208 12,-208 6,-208 0,-202 0,-196 0,-196 0,-170 0,-170 0,-164 6,-158 12,-158 12,-158 203,-158 203,-158 209,-158 215,-164 215,-170 215,-170 215,-196 215,-196 215,-202 209,-208 203,-208"/>
<text text-anchor="middle" x="107.5" y="-192.2" font-family="DejaVu Sans" font-size="11.00" fill="#0f172a">Deterministic Placement</text>
<text text-anchor="middle" x="107.5" y="-180.2" font-family="DejaVu Sans" font-size="11.00" fill="#0f172a">ownerRegion is durable</text>
<text text-anchor="middle" x="107.5" y="-168.2" font-family="DejaVu Sans" font-size="11.00" fill="#0f172a">and not changed by routing health</text>
</g>
<!-- placement&#45;&gt;state -->
<g id="edge3" class="edge">
<title>placement&#45;&gt;state</title>
<path fill="none" stroke="#64748b" stroke-width="1.3" d="M144,-157.99C144,-148.53 144,-140 144,-140 144,-140 775.88,-140 775.88,-140"/>
<polygon fill="#64748b" stroke="#64748b" stroke-width="1.3" points="775.88,-142.63 783.38,-140 775.88,-137.38 775.88,-142.63"/>
</g>
<!-- placement&#45;&gt;es3 -->
<g id="edge4" class="edge">
<title>placement&#45;&gt;es3</title>
<path fill="none" stroke="#64748b" stroke-width="1.3" d="M215.13,-183C215.13,-183 403.21,-183 403.21,-183"/>
<polygon fill="#64748b" stroke="#64748b" stroke-width="1.3" points="403.21,-185.63 410.71,-183 403.21,-180.38 403.21,-185.63"/>
<text text-anchor="middle" x="279" y="-185.8" font-family="DejaVu Sans" font-size="9.00" fill="#334155">east&#45;owned work</text>
</g>
<!-- placement&#45;&gt;eq -->
<g id="edge5" class="edge">
<title>placement&#45;&gt;eq</title>
<path fill="none" stroke="#64748b" stroke-width="1.3" d="M72,-157.68C72,-138.35 72,-115 72,-115 72,-115 403.98,-115 403.98,-115"/>
<polygon fill="#64748b" stroke="#64748b" stroke-width="1.3" points="403.98,-117.63 411.48,-115 403.98,-112.38 403.98,-117.63"/>
<text text-anchor="middle" x="279" y="-128.8" font-family="DejaVu Sans" font-size="9.00" fill="#334155">east transport</text>
</g>
<!-- placement&#45;&gt;ws3 -->
<g id="edge6" class="edge">
<title>placement&#45;&gt;ws3</title>
<path fill="none" stroke="#64748b" stroke-width="1.3" d="M72,-208.04C72,-252.59 72,-341 72,-341 72,-341 403.17,-341 403.17,-341"/>
<polygon fill="#64748b" stroke="#64748b" stroke-width="1.3" points="403.17,-343.63 410.67,-341 403.17,-338.38 403.17,-343.63"/>
<text text-anchor="middle" x="279" y="-320.8" font-family="DejaVu Sans" font-size="9.00" fill="#334155">west&#45;owned work</text>
</g>
<!-- placement&#45;&gt;wq -->
<g id="edge7" class="edge">
<title>placement&#45;&gt;wq</title>
<path fill="none" stroke="#64748b" stroke-width="1.3" d="M144,-208.07C144,-234.7 144,-273 144,-273 144,-273 403.89,-273 403.89,-273"/>
<polygon fill="#64748b" stroke="#64748b" stroke-width="1.3" points="403.89,-275.63 411.39,-273 403.89,-270.38 403.89,-275.63"/>
<text text-anchor="middle" x="279" y="-252.8" font-family="DejaVu Sans" font-size="9.00" fill="#334155">west transport</text>
</g>
</g>
</svg>
