<?xml version="1.0" encoding="UTF-8" standalone="no"?>
<!DOCTYPE svg PUBLIC "-//W3C//DTD SVG 1.1//EN"
 "http://www.w3.org/Graphics/SVG/1.1/DTD/svg11.dtd">
<!-- Generated by graphviz version 2.42.4 (0)
 -->
<!-- Title: G Pages: 1 -->
<svg width="1880pt" height="140pt"
 viewBox="0.00 0.00 1880.40 140.40" xmlns="http://www.w3.org/2000/svg" xmlns:xlink="http://www.w3.org/1999/xlink">
<g id="graph0" class="graph" transform="scale(1 1) rotate(0) translate(25.2 115.2)">
<title>G</title>
<polygon fill="white" stroke="transparent" points="-25.2,25.2 -25.2,-115.2 1855.2,-115.2 1855.2,25.2 -25.2,25.2"/>
<text text-anchor="middle" x="325" y="-71.6" font-family="DejaVu Sans" font-size="18.00">Architecture Evolution — From Single Region to Certified Active&#45;Active</text>
<!-- v1 -->
<g id="node1" class="node">
<title>v1</title>
<path fill="#e0f2fe" stroke="#334155" stroke-width="1.3" d="M145,-62C145,-62 12,-62 12,-62 6,-62 0,-56 0,-50 0,-50 0,-12 0,-12 0,-6 6,0 12,0 12,0 145,0 145,0 151,0 157,-6 157,-12 157,-12 157,-50 157,-50 157,-56 151,-62 145,-62"/>
<text text-anchor="middle" x="78.5" y="-46.2" font-family="DejaVu Sans" font-size="11.00" fill="#0f172a">MVP1</text>
<text text-anchor="middle" x="78.5" y="-34.2" font-family="DejaVu Sans" font-size="11.00" fill="#0f172a">Single&#45;region serverless</text>
<text text-anchor="middle" x="78.5" y="-22.2" font-family="DejaVu Sans" font-size="11.00" fill="#0f172a">API Gateway + Lambda</text>
<text text-anchor="middle" x="78.5" y="-10.2" font-family="DejaVu Sans" font-size="11.00" fill="#0f172a">DynamoDB + S3</text>
</g>
<!-- ground -->
<g id="node2" class="node">
<title>ground</title>
<path fill="#dbeafe" stroke="#334155" stroke-width="1.3" d="M408,-56C408,-56 216,-56 216,-56 210,-56 204,-50 204,-44 204,-44 204,-18 204,-18 204,-12 210,-6 216,-6 216,-6 408,-6 408,-6 414,-6 420,-12 420,-18 420,-18 420,-44 420,-44 420,-50 414,-56 408,-56"/>
<text text-anchor="middle" x="312" y="-40.2" font-family="DejaVu Sans" font-size="11.00" fill="#0f172a">MR&#45;001–004</text>
<text text-anchor="middle" x="312" y="-28.2" font-family="DejaVu Sans" font-size="11.00" fill="#0f172a">Test harness, idempotency,</text>
<text text-anchor="middle" x="312" y="-16.2" font-family="DejaVu Sans" font-size="11.00" fill="#0f172a">transactional outbox, SQS workers</text>
</g>
<!-- v1&#45;&gt;ground -->
<g id="edge1" class="edge">
<title>v1&#45;&gt;ground</title>
<path fill="none" stroke="#64748b" stroke-width="1.3" d="M157.23,-31C157.23,-31 196.27,-31 196.27,-31"/>
<polygon fill="#64748b" stroke="#64748b" stroke-width="1.3" points="196.27,-33.63 203.77,-31 196.27,-28.38 196.27,-33.63"/>
</g>
<!-- aware -->
<g id="node3" class="node">
<title>aware</title>
<path fill="#dbeafe" stroke="#334155" stroke-width="1.3" d="M645,-56C645,-56 479,-56 479,-56 473,-56 467,-50 467,-44 467,-44 467,-18 467,-18 467,-12 473,-6 479,-6 479,-6 645,-6 645,-6 651,-6 657,-12 657,-18 657,-18 657,-44 657,-44 657,-50 651,-56 645,-56"/>
<text text-anchor="middle" x="562" y="-40.2" font-family="DejaVu Sans" font-size="11.00" fill="#0f172a">MR&#45;006</text>
<text text-anchor="middle" x="562" y="-28.2" font-family="DejaVu Sans" font-size="11.00" fill="#0f172a">Regional awareness</text>
<text text-anchor="middle" x="562" y="-16.2" font-family="DejaVu Sans" font-size="11.00" fill="#0f172a">Runtime identity + placement</text>
</g>
<!-- ground&#45;&gt;aware -->
<g id="edge2" class="edge">
<title>ground&#45;&gt;aware</title>
<path fill="none" stroke="#64748b" stroke-width="1.3" d="M420.2,-31C420.2,-31 459.49,-31 459.49,-31"/>
<polygon fill="#64748b" stroke="#64748b" stroke-width="1.3" points="459.49,-33.63 466.99,-31 459.49,-28.38 459.49,-33.63"/>
</g>
<!-- platform -->
<g id="node4" class="node">
<title>platform</title>
<path fill="#dbeafe" stroke="#334155" stroke-width="1.3" d="M872,-56C872,-56 716,-56 716,-56 710,-56 704,-50 704,-44 704,-44 704,-18 704,-18 704,-12 710,-6 716,-6 716,-6 872,-6 872,-6 878,-6 884,-12 884,-18 884,-18 884,-44 884,-44 884,-50 878,-56 872,-56"/>
<text text-anchor="middle" x="794" y="-40.2" font-family="DejaVu Sans" font-size="11.00" fill="#0f172a">MR&#45;007</text>
<text text-anchor="middle" x="794" y="-28.2" font-family="DejaVu Sans" font-size="11.00" fill="#0f172a">Symmetric Platform V2</text>
<text text-anchor="middle" x="794" y="-16.2" font-family="DejaVu Sans" font-size="11.00" fill="#0f172a">East + West regional stacks</text>
</g>
<!-- aware&#45;&gt;platform -->
<g id="edge3" class="edge">
<title>aware&#45;&gt;platform</title>
<path fill="none" stroke="#64748b" stroke-width="1.3" d="M657.03,-31C657.03,-31 696.48,-31 696.48,-31"/>
<polygon fill="#64748b" stroke="#64748b" stroke-width="1.3" points="696.48,-33.63 703.98,-31 696.48,-28.38 696.48,-33.63"/>
</g>
<!-- mrsc -->
<g id="node5" class="node">
<title>mrsc</title>
<path fill="#f3e8ff" stroke="#334155" stroke-width="1.3" d="M1107,-56C1107,-56 943,-56 943,-56 937,-56 931,-50 931,-44 931,-44 931,-18 931,-18 931,-12 937,-6 943,-6 943,-6 1107,-6 1107,-6 1113,-6 1119,-12 1119,-18 1119,-18 1119,-44 1119,-44 1119,-50 1113,-56 1107,-56"/>
<text text-anchor="middle" x="1025" y="-40.2" font-family="DejaVu Sans" font-size="11.00" fill="#0f172a">MR&#45;008</text>
<text text-anchor="middle" x="1025" y="-28.2" font-family="DejaVu Sans" font-size="11.00" fill="#0f172a">DynamoDB MRSC</text>
<text text-anchor="middle" x="1025" y="-16.2" font-family="DejaVu Sans" font-size="11.00" fill="#0f172a">Strong consistency + witness</text>
</g>
<!-- platform&#45;&gt;mrsc -->
<g id="edge4" class="edge">
<title>platform&#45;&gt;mrsc</title>
<path fill="none" stroke="#64748b" stroke-width="1.3" d="M884.3,-31C884.3,-31 923.45,-31 923.45,-31"/>
<polygon fill="#64748b" stroke="#64748b" stroke-width="1.3" points="923.45,-33.63 930.95,-31 923.45,-28.38 923.45,-33.63"/>
</g>
<!-- validate -->
<g id="node6" class="node">
<title>validate</title>
<path fill="#fef3c7" stroke="#334155" stroke-width="1.3" d="M1319,-56C1319,-56 1178,-56 1178,-56 1172,-56 1166,-50 1166,-44 1166,-44 1166,-18 1166,-18 1166,-12 1172,-6 1178,-6 1178,-6 1319,-6 1319,-6 1325,-6 1331,-12 1331,-18 1331,-18 1331,-44 1331,-44 1331,-50 1325,-56 1319,-56"/>
<text text-anchor="middle" x="1248.5" y="-40.2" font-family="DejaVu Sans" font-size="11.00" fill="#0f172a">MR&#45;009–013</text>
<text text-anchor="middle" x="1248.5" y="-28.2" font-family="DejaVu Sans" font-size="11.00" fill="#0f172a">Routing, workflow states,</text>
<text text-anchor="middle" x="1248.5" y="-16.2" font-family="DejaVu Sans" font-size="11.00" fill="#0f172a">operational validation</text>
</g>
<!-- mrsc&#45;&gt;validate -->
<g id="edge5" class="edge">
<title>mrsc&#45;&gt;validate</title>
<path fill="none" stroke="#64748b" stroke-width="1.3" d="M1119.14,-31C1119.14,-31 1158.32,-31 1158.32,-31"/>
<polygon fill="#64748b" stroke="#64748b" stroke-width="1.3" points="1158.32,-33.63 1165.82,-31 1158.32,-28.38 1158.32,-33.63"/>
</g>
<!-- cert -->
<g id="node7" class="node">
<title>cert</title>
<path fill="#dcfce7" stroke="#334155" stroke-width="1.3" d="M1585,-56C1585,-56 1390,-56 1390,-56 1384,-56 1378,-50 1378,-44 1378,-44 1378,-18 1378,-18 1378,-12 1384,-6 1390,-6 1390,-6 1585,-6 1585,-6 1591,-6 1597,-12 1597,-18 1597,-18 1597,-44 1597,-44 1597,-50 1591,-56 1585,-56"/>
<text text-anchor="middle" x="1487.5" y="-40.2" font-family="DejaVu Sans" font-size="11.00" fill="#0f172a">MR&#45;014</text>
<text text-anchor="middle" x="1487.5" y="-28.2" font-family="DejaVu Sans" font-size="11.00" fill="#0f172a">Runtime certification</text>
<text text-anchor="middle" x="1487.5" y="-16.2" font-family="DejaVu Sans" font-size="11.00" fill="#0f172a">Isolation, backlog, replay, recovery</text>
</g>
<!-- validate&#45;&gt;cert -->
<g id="edge6" class="edge">
<title>validate&#45;&gt;cert</title>
<path fill="none" stroke="#64748b" stroke-width="1.3" d="M1331.08,-31C1331.08,-31 1370.43,-31 1370.43,-31"/>
<polygon fill="#64748b" stroke="#64748b" stroke-width="1.3" points="1370.43,-33.63 1377.93,-31 1370.43,-28.38 1370.43,-33.63"/>
</g>
<!-- close -->
<g id="node8" class="node">
<title>close</title>
<path fill="#dcfce7" stroke="#334155" stroke-width="2" d="M1818,-56C1818,-56 1656,-56 1656,-56 1650,-56 1644,-50 1644,-44 1644,-44 1644,-18 1644,-18 1644,-12 1650,-6 1656,-6 1656,-6 1818,-6 1818,-6 1824,-6 1830,-12 1830,-18 1830,-18 1830,-44 1830,-44 1830,-50 1824,-56 1818,-56"/>
<text text-anchor="middle" x="1737" y="-40.2" font-family="DejaVu Sans" font-size="11.00" fill="#0f172a">MR&#45;015 / MR&#45;016</text>
<text text-anchor="middle" x="1737" y="-28.2" font-family="DejaVu Sans" font-size="11.00" fill="#0f172a">Documentation reconciliation</text>
<text text-anchor="middle" x="1737" y="-16.2" font-family="DejaVu Sans" font-size="11.00" fill="#0f172a">Final acceptance</text>
</g>
<!-- cert&#45;&gt;close -->
<g id="edge7" class="edge">
<title>cert&#45;&gt;close</title>
<path fill="none" stroke="#64748b" stroke-width="1.3" d="M1597.3,-31C1597.3,-31 1636.43,-31 1636.43,-31"/>
<polygon fill="#64748b" stroke="#64748b" stroke-width="1.3" points="1636.43,-33.63 1643.93,-31 1636.43,-28.38 1636.43,-33.63"/>
</g>
</g>
</svg>
